<?xml version="1.0" encoding="UTF-8" standalone="no"?><svg xmlns="http://www.w3.org/2000/svg" xmlns:xlink="http://www.w3.org/1999/xlink" contentStyleType="text/css" height="558px" preserveAspectRatio="none" style="width:1550px;height:558px;background:#FFFFFF;" version="1.1" viewBox="0 0 1550 558" width="1550px" zoomAndPan="magnify"><defs/><g><!--MD5=[8250f42f60e762692c5f9f72b6cd7e4d]
cluster com.flag.cinema--><g id="cluster_com.flag.cinema"><path d="M8.5,6 L122.5,6 A3.75,3.75 0 0 1 125,8.5 L132,29.6094 L1540.5,29.6094 A2.5,2.5 0 0 1 1543,32.1094 L1543,548.5 A2.5,2.5 0 0 1 1540.5,551 L8.5,551 A2.5,2.5 0 0 1 6,548.5 L6,8.5 A2.5,2.5 0 0 1 8.5,6 " fill="none" style="stroke:#000000;stroke-width:1.5;"/><line style="stroke:#000000;stroke-width:1.5;" x1="6" x2="132" y1="29.6094" y2="29.6094"/><text fill="#000000" font-family="sans-serif" font-size="14" font-weight="bold" lengthAdjust="spacing" textLength="113" x="10" y="22.5332">com.flag.cinema</text></g><!--MD5=[14e6bccbba2cc1ebd738e60cb53ef955]
class com.flag.cinema.RecyclerViewAdapter--><g id="elem_com.flag.cinema.RecyclerViewAdapter"><rect codeLine="1" fill="#F1F1F1" height="171.2656" id="com.flag.cinema.RecyclerViewAdapter" rx="2.5" ry="2.5" style="stroke:#181818;stroke-width:0.5;" width="483" x="22.5" y="168"/><ellipse cx="192.75" cy="184" fill="#ADD1B2" rx="11" ry="11" style="stroke:#181818;stroke-width:1.0;"/><path d="M194.75,180.5 Q194.9531,180 195.1875,179.75 Q195.4219,179.5 195.6875,179.5 Q196.1563,179.5 196.4531,179.7813 Q196.75,180.0625 196.75,180.7188 L196.75,182.2813 Q196.75,182.9375 196.4688,183.2188 Q196.1875,183.5 195.75,183.5 Q195.3594,183.5 195.1094,183.3281 Q194.8594,183.1563 194.75,182.7031 Q194.7031,182.3906 194.5313,182.2188 Q194.2188,181.8906 193.6563,181.7031 Q193.0938,181.5 192.5313,181.5 Q191.8281,181.5 191.2344,181.7813 Q190.6563,182.0625 190.2031,182.6875 Q189.75,183.3125 189.75,184.1719 L189.75,185.0938 Q189.75,186.125 190.5938,186.8125 Q191.4375,187.5 192.9375,187.5 Q193.8281,187.5 194.4531,187.2969 Q194.8125,187.1875 195.2188,186.8281 Q195.4844,186.625 195.625,186.5625 Q195.7656,186.5 195.9375,186.5 Q196.2656,186.5 196.5,186.7656 Q196.75,187.0156 196.75,187.375 Q196.75,187.7188 196.4063,188.125 Q195.9063,188.7188 195.1094,189.0469 Q194.0625,189.5 192.7813,189.5 Q191.2813,189.5 190.0781,188.9063 Q189.1094,188.4375 188.4219,187.4219 Q187.75,186.4063 187.75,185.2031 L187.75,184.1094 Q187.75,182.8594 188.3438,181.7656 Q188.9531,180.6719 190,180.0938 Q191.0625,179.5 192.25,179.5 Q192.9688,179.5 193.5938,179.75 Q194.2188,180 194.75,180.5 Z " fill="#000000"/><text fill="#000000" font-family="sans-serif" font-size="14" lengthAdjust="spacing" textLength="134" x="213.25" y="189.7285">RecyclerViewAdapter</text><line style="stroke:#181818;stroke-width:0.5;" x1="23.5" x2="504.5" y1="200" y2="200"/><rect fill="none" height="6" style="stroke:#C82930;stroke-width:1.0;" width="6" x="30.5" y="211.3047"/><text fill="#000000" font-family="sans-serif" font-size="14" lengthAdjust="spacing" textLength="138" x="42.5" y="218.5332">List&lt;Movie&gt; movieList</text><rect fill="none" height="6" style="stroke:#C82930;stroke-width:1.0;" width="6" x="30.5" y="228.9141"/><text fill="#000000" font-family="sans-serif" font-size="14" lengthAdjust="spacing" textLength="216" x="42.5" y="236.1426">ClickListener&lt;Movie&gt; clickListener</text><polygon fill="none" points="33.5,245.5234,29.5,251.5234,37.5,251.5234" style="stroke:#1963A0;stroke-width:1.0;"/><text fill="#000000" font-family="sans-serif" font-size="14" lengthAdjust="spacing" textLength="97" x="42.5" y="253.752">Context context</text><line style="stroke:#181818;stroke-width:0.5;" x1="23.5" x2="504.5" y1="260.8281" y2="260.8281"/><ellipse cx="33.5" cy="275.1328" fill="#84BE84" rx="3" ry="3" style="stroke:#038048;stroke-width:1.0;"/><text fill="#000000" font-family="sans-serif" font-size="14" lengthAdjust="spacing" textLength="457" x="42.5" y="279.3613">RecyclerViewAdapter.MyViewHolder onCreateViewHolder(ViewGroup,int)</text><ellipse cx="33.5" cy="292.7422" fill="#84BE84" rx="3" ry="3" style="stroke:#038048;stroke-width:1.0;"/><text fill="#000000" font-family="sans-serif" font-size="14" lengthAdjust="spacing" textLength="399" x="42.5" y="296.9707">void onBindViewHolder(RecyclerViewAdapter.MyViewHolder,int)</text><ellipse cx="33.5" cy="310.3516" fill="#84BE84" rx="3" ry="3" style="stroke:#038048;stroke-width:1.0;"/><text fill="#000000" font-family="sans-serif" font-size="14" lengthAdjust="spacing" textLength="113" x="42.5" y="314.5801">int getItemCount()</text><ellipse cx="33.5" cy="327.9609" fill="#84BE84" rx="3" ry="3" style="stroke:#038048;stroke-width:1.0;"/><text fill="#000000" font-family="sans-serif" font-size="14" lengthAdjust="spacing" textLength="319" x="42.5" y="332.1895">void setOnItemClickListener(ClickListener&lt;Movie&gt;)</text></g><!--MD5=[0ba6745569ebaaecd78204657da7fb07]
class com.flag.cinema.RecyclerViewAdapter.MyViewHolder--><g id="elem_com.flag.cinema.RecyclerViewAdapter.MyViewHolder"><rect codeLine="10" fill="#F1F1F1" height="136.0469" id="com.flag.cinema.RecyclerViewAdapter.MyViewHolder" rx="2.5" ry="2.5" style="stroke:#181818;stroke-width:0.5;" width="258" x="161" y="399"/><ellipse cx="176" cy="415" fill="#ADD1B2" rx="11" ry="11" style="stroke:#181818;stroke-width:1.0;"/><path d="M178,411.5 Q178.2031,411 178.4375,410.75 Q178.6719,410.5 178.9375,410.5 Q179.4063,410.5 179.7031,410.7813 Q180,411.0625 180,411.7188 L180,413.2813 Q180,413.9375 179.7188,414.2188 Q179.4375,414.5 179,414.5 Q178.6094,414.5 178.3594,414.3281 Q178.1094,414.1563 178,413.7031 Q177.9531,413.3906 177.7813,413.2188 Q177.4688,412.8906 176.9063,412.7031 Q176.3438,412.5 175.7813,412.5 Q175.0781,412.5 174.4844,412.7813 Q173.9063,413.0625 173.4531,413.6875 Q173,414.3125 173,415.1719 L173,416.0938 Q173,417.125 173.8438,417.8125 Q174.6875,418.5 176.1875,418.5 Q177.0781,418.5 177.7031,418.2969 Q178.0625,418.1875 178.4688,417.8281 Q178.7344,417.625 178.875,417.5625 Q179.0156,417.5 179.1875,417.5 Q179.5156,417.5 179.75,417.7656 Q180,418.0156 180,418.375 Q180,418.7188 179.6563,419.125 Q179.1563,419.7188 178.3594,420.0469 Q177.3125,420.5 176.0313,420.5 Q174.5313,420.5 173.3281,419.9063 Q172.3594,419.4375 171.6719,418.4219 Q171,417.4063 171,416.2031 L171,415.1094 Q171,413.8594 171.5938,412.7656 Q172.2031,411.6719 173.25,411.0938 Q174.3125,410.5 175.5,410.5 Q176.2188,410.5 176.8438,410.75 Q177.4688,411 178,411.5 Z " fill="#000000"/><text fill="#000000" font-family="sans-serif" font-size="14" lengthAdjust="spacing" textLength="226" x="190" y="420.7285">RecyclerViewAdapter.MyViewHolder</text><line style="stroke:#181818;stroke-width:0.5;" x1="162" x2="418" y1="431" y2="431"/><rect fill="none" height="6" style="stroke:#C82930;stroke-width:1.0;" width="6" x="169" y="442.3047"/><text fill="#000000" font-family="sans-serif" font-size="14" lengthAdjust="spacing" textLength="82" x="181" y="449.5332">TextView title</text><rect fill="none" height="6" style="stroke:#C82930;stroke-width:1.0;" width="6" x="169" y="459.9141"/><text fill="#000000" font-family="sans-serif" font-size="14" lengthAdjust="spacing" textLength="96" x="181" y="467.1426">TextView rating</text><rect fill="none" height="6" style="stroke:#C82930;stroke-width:1.0;" width="6" x="169" y="477.5234"/><text fill="#000000" font-family="sans-serif" font-size="14" lengthAdjust="spacing" textLength="97" x="181" y="484.752">TextView genre</text><rect fill="none" height="6" style="stroke:#C82930;stroke-width:1.0;" width="6" x="169" y="495.1328"/><text fill="#000000" font-family="sans-serif" font-size="14" lengthAdjust="spacing" textLength="109" x="181" y="502.3613">ImageView image</text><rect fill="none" height="6" style="stroke:#C82930;stroke-width:1.0;" width="6" x="169" y="512.7422"/><text fill="#000000" font-family="sans-serif" font-size="14" lengthAdjust="spacing" textLength="121" x="181" y="519.9707">CardView cardView</text><line style="stroke:#181818;stroke-width:0.5;" x1="162" x2="418" y1="527.0469" y2="527.0469"/></g><!--MD5=[ba84047b984aa667d49a5e3bfb77c787]
class com.flag.cinema.ClickListener--><g id="elem_com.flag.cinema.ClickListener"><rect codeLine="17" fill="#F1F1F1" height="65.6094" id="com.flag.cinema.ClickListener" rx="2.5" ry="2.5" style="stroke:#181818;stroke-width:0.5;" width="147" x="1309.5" y="42"/><ellipse cx="1339.35" cy="58" fill="#B4A7E5" rx="11" ry="11" style="stroke:#181818;stroke-width:1.0;"/><path d="M1340.35,55 L1340.35,61 L1342.35,61 L1342.8344,61 L1343.35,61.625 L1343.35,62 L1343.35,62.375 L1342.8344,63 L1342.35,63 L1336.35,63 L1335.8656,63 L1335.35,62.375 L1335.35,62 L1335.35,61.625 L1335.8656,61 L1336.35,61 L1338.35,61 L1338.35,55 L1336.35,55 L1335.8656,55 L1335.35,54.375 L1335.35,54 L1335.35,53.625 L1335.8656,53 L1336.35,53 L1342.35,53 L1342.8344,53 L1343.35,53.625 L1343.35,54 L1343.35,54.375 L1342.8344,55 L1342.35,55 L1340.35,55 Z " fill="#000000"/><text fill="#000000" font-family="sans-serif" font-size="14" font-style="italic" lengthAdjust="spacing" textLength="82" x="1356.65" y="63.7285">ClickListener</text><line style="stroke:#181818;stroke-width:0.5;" x1="1310.5" x2="1455.5" y1="74" y2="74"/><line style="stroke:#181818;stroke-width:0.5;" x1="1310.5" x2="1455.5" y1="82" y2="82"/><polygon fill="#4177AF" points="1320.5,92.3047,1316.5,98.3047,1324.5,98.3047" style="stroke:#1963A0;stroke-width:1.0;"/><text fill="#000000" font-family="sans-serif" font-size="14" lengthAdjust="spacing" textLength="121" x="1329.5" y="100.5332">void onItemClick(T)</text></g><!--MD5=[2ed3556efae18e4715c7c92295763337]
class com.flag.cinema.NumberedAdapter--><g id="elem_com.flag.cinema.NumberedAdapter"><rect codeLine="20" fill="#F1F1F1" height="153.6563" id="com.flag.cinema.NumberedAdapter" rx="2.5" ry="2.5" style="stroke:#181818;stroke-width:0.5;" width="327" x="678.5" y="176.5"/><ellipse cx="780.25" cy="192.5" fill="#ADD1B2" rx="11" ry="11" style="stroke:#181818;stroke-width:1.0;"/><path d="M782.25,189 Q782.4531,188.5 782.6875,188.25 Q782.9219,188 783.1875,188 Q783.6563,188 783.9531,188.2813 Q784.25,188.5625 784.25,189.2188 L784.25,190.7813 Q784.25,191.4375 783.9688,191.7188 Q783.6875,192 783.25,192 Q782.8594,192 782.6094,191.8281 Q782.3594,191.6563 782.25,191.2031 Q782.2031,190.8906 782.0313,190.7188 Q781.7188,190.3906 781.1563,190.2031 Q780.5938,190 780.0313,190 Q779.3281,190 778.7344,190.2813 Q778.1563,190.5625 777.7031,191.1875 Q777.25,191.8125 777.25,192.6719 L777.25,193.5938 Q777.25,194.625 778.0938,195.3125 Q778.9375,196 780.4375,196 Q781.3281,196 781.9531,195.7969 Q782.3125,195.6875 782.7188,195.3281 Q782.9844,195.125 783.125,195.0625 Q783.2656,195 783.4375,195 Q783.7656,195 784,195.2656 Q784.25,195.5156 784.25,195.875 Q784.25,196.2188 783.9063,196.625 Q783.4063,197.2188 782.6094,197.5469 Q781.5625,198 780.2813,198 Q778.7813,198 777.5781,197.4063 Q776.6094,196.9375 775.9219,195.9219 Q775.25,194.9063 775.25,193.7031 L775.25,192.6094 Q775.25,191.3594 775.8438,190.2656 Q776.4531,189.1719 777.5,188.5938 Q778.5625,188 779.75,188 Q780.4688,188 781.0938,188.25 Q781.7188,188.5 782.25,189 Z " fill="#000000"/><text fill="#000000" font-family="sans-serif" font-size="14" lengthAdjust="spacing" textLength="115" x="800.75" y="198.2285">NumberedAdapter</text><line style="stroke:#181818;stroke-width:0.5;" x1="679.5" x2="1004.5" y1="208.5" y2="208.5"/><rect fill="none" height="6" style="stroke:#C82930;stroke-width:1.0;" width="6" x="686.5" y="219.8047"/><text fill="#000000" font-family="sans-serif" font-size="14" lengthAdjust="spacing" textLength="116" x="698.5" y="227.0332">List&lt;String&gt; labels</text><ellipse cx="689.5" cy="240.4141" fill="none" rx="3" ry="3" style="stroke:#038048;stroke-width:1.0;"/><text fill="#000000" font-family="sans-serif" font-size="14" lengthAdjust="spacing" text-decoration="underline" textLength="113" x="698.5" y="244.6426">List&lt;String&gt; seats</text><ellipse cx="689.5" cy="258.0234" fill="none" rx="3" ry="3" style="stroke:#038048;stroke-width:1.0;"/><text fill="#000000" font-family="sans-serif" font-size="14" lengthAdjust="spacing" text-decoration="underline" textLength="139" x="698.5" y="262.252">List&lt;String&gt; seatindex</text><line style="stroke:#181818;stroke-width:0.5;" x1="679.5" x2="1004.5" y1="269.3281" y2="269.3281"/><ellipse cx="689.5" cy="283.6328" fill="#84BE84" rx="3" ry="3" style="stroke:#038048;stroke-width:1.0;"/><text fill="#000000" font-family="sans-serif" font-size="14" lengthAdjust="spacing" textLength="301" x="698.5" y="287.8613">ViewHolder onCreateViewHolder(ViewGroup,int)</text><ellipse cx="689.5" cy="301.2422" fill="#84BE84" rx="3" ry="3" style="stroke:#038048;stroke-width:1.0;"/><text fill="#000000" font-family="sans-serif" font-size="14" lengthAdjust="spacing" textLength="243" x="698.5" y="305.4707">void onBindViewHolder(ViewHolder,int)</text><ellipse cx="689.5" cy="318.8516" fill="#84BE84" rx="3" ry="3" style="stroke:#038048;stroke-width:1.0;"/><text fill="#000000" font-family="sans-serif" font-size="14" lengthAdjust="spacing" textLength="113" x="698.5" y="323.0801">int getItemCount()</text></g><!--MD5=[23c88e9936bb7d6cb91602ad800a9dd0]
class com.flag.cinema.NumberedAdapter.ViewHolder--><g id="elem_com.flag.cinema.NumberedAdapter.ViewHolder"><rect codeLine="28" fill="#F1F1F1" height="65.6094" id="com.flag.cinema.NumberedAdapter.ViewHolder" rx="2.5" ry="2.5" style="stroke:#181818;stroke-width:0.5;" width="221" x="585.5" y="434"/><ellipse cx="600.5" cy="450" fill="#ADD1B2" rx="11" ry="11" style="stroke:#181818;stroke-width:1.0;"/><path d="M602.5,446.5 Q602.7031,446 602.9375,445.75 Q603.1719,445.5 603.4375,445.5 Q603.9063,445.5 604.2031,445.7813 Q604.5,446.0625 604.5,446.7188 L604.5,448.2813 Q604.5,448.9375 604.2188,449.2188 Q603.9375,449.5 603.5,449.5 Q603.1094,449.5 602.8594,449.3281 Q602.6094,449.1563 602.5,448.7031 Q602.4531,448.3906 602.2813,448.2188 Q601.9688,447.8906 601.4063,447.7031 Q600.8438,447.5 600.2813,447.5 Q599.5781,447.5 598.9844,447.7813 Q598.4063,448.0625 597.9531,448.6875 Q597.5,449.3125 597.5,450.1719 L597.5,451.0938 Q597.5,452.125 598.3438,452.8125 Q599.1875,453.5 600.6875,453.5 Q601.5781,453.5 602.2031,453.2969 Q602.5625,453.1875 602.9688,452.8281 Q603.2344,452.625 603.375,452.5625 Q603.5156,452.5 603.6875,452.5 Q604.0156,452.5 604.25,452.7656 Q604.5,453.0156 604.5,453.375 Q604.5,453.7188 604.1563,454.125 Q603.6563,454.7188 602.8594,455.0469 Q601.8125,455.5 600.5313,455.5 Q599.0313,455.5 597.8281,454.9063 Q596.8594,454.4375 596.1719,453.4219 Q595.5,452.4063 595.5,451.2031 L595.5,450.1094 Q595.5,448.8594 596.0938,447.7656 Q596.7031,446.6719 597.75,446.0938 Q598.8125,445.5 600,445.5 Q600.7188,445.5 601.3438,445.75 Q601.9688,446 602.5,446.5 Z " fill="#000000"/><text fill="#000000" font-family="sans-serif" font-size="14" lengthAdjust="spacing" textLength="189" x="614.5" y="455.7285">NumberedAdapter.ViewHolder</text><line style="stroke:#181818;stroke-width:0.5;" x1="586.5" x2="805.5" y1="466" y2="466"/><ellipse cx="596.5" cy="480.3047" fill="none" rx="3" ry="3" style="stroke:#038048;stroke-width:1.0;"/><text fill="#000000" font-family="sans-serif" font-size="14" lengthAdjust="spacing" textLength="111" x="605.5" y="484.5332">TextView textView</text><line style="stroke:#181818;stroke-width:0.5;" x1="586.5" x2="805.5" y1="491.6094" y2="491.6094"/></g><!--MD5=[c1d729449bc3e6ea9111c8edd8de2d6b]
class com.flag.cinema.RecyclerBookAdapter--><g id="elem_com.flag.cinema.RecyclerBookAdapter"><rect codeLine="31" fill="#F1F1F1" height="171.2656" id="com.flag.cinema.RecyclerBookAdapter" rx="2.5" ry="2.5" style="stroke:#181818;stroke-width:0.5;" width="486" x="1041" y="168"/><ellipse cx="1211.25" cy="184" fill="#ADD1B2" rx="11" ry="11" style="stroke:#181818;stroke-width:1.0;"/><path d="M1213.25,180.5 Q1213.4531,180 1213.6875,179.75 Q1213.9219,179.5 1214.1875,179.5 Q1214.6563,179.5 1214.9531,179.7813 Q1215.25,180.0625 1215.25,180.7188 L1215.25,182.2813 Q1215.25,182.9375 1214.9688,183.2188 Q1214.6875,183.5 1214.25,183.5 Q1213.8594,183.5 1213.6094,183.3281 Q1213.3594,183.1563 1213.25,182.7031 Q1213.2031,182.3906 1213.0313,182.2188 Q1212.7188,181.8906 1212.1563,181.7031 Q1211.5938,181.5 1211.0313,181.5 Q1210.3281,181.5 1209.7344,181.7813 Q1209.1563,182.0625 1208.7031,182.6875 Q1208.25,183.3125 1208.25,184.1719 L1208.25,185.0938 Q1208.25,186.125 1209.0938,186.8125 Q1209.9375,187.5 1211.4375,187.5 Q1212.3281,187.5 1212.9531,187.2969 Q1213.3125,187.1875 1213.7188,186.8281 Q1213.9844,186.625 1214.125,186.5625 Q1214.2656,186.5 1214.4375,186.5 Q1214.7656,186.5 1215,186.7656 Q1215.25,187.0156 1215.25,187.375 Q1215.25,187.7188 1214.9063,188.125 Q1214.4063,188.7188 1213.6094,189.0469 Q1212.5625,189.5 1211.2813,189.5 Q1209.7813,189.5 1208.5781,188.9063 Q1207.6094,188.4375 1206.9219,187.4219 Q1206.25,186.4063 1206.25,185.2031 L1206.25,184.1094 Q1206.25,182.8594 1206.8438,181.7656 Q1207.4531,180.6719 1208.5,180.0938 Q1209.5625,179.5 1210.75,179.5 Q1211.4688,179.5 1212.0938,179.75 Q1212.7188,180 1213.25,180.5 Z " fill="#000000"/><text fill="#000000" font-family="sans-serif" font-size="14" lengthAdjust="spacing" textLength="137" x="1231.75" y="189.7285">RecyclerBookAdapter</text><line style="stroke:#181818;stroke-width:0.5;" x1="1042" x2="1526" y1="200" y2="200"/><rect fill="none" height="6" style="stroke:#C82930;stroke-width:1.0;" width="6" x="1049" y="211.3047"/><text fill="#000000" font-family="sans-serif" font-size="14" lengthAdjust="spacing" textLength="153" x="1061" y="218.5332">List&lt;Bookings&gt; bookList</text><rect fill="none" height="6" style="stroke:#C82930;stroke-width:1.0;" width="6" x="1049" y="228.9141"/><text fill="#000000" font-family="sans-serif" font-size="14" lengthAdjust="spacing" textLength="253" x="1061" y="236.1426">ClickListener1&lt;Bookings&gt; clickListener1</text><polygon fill="none" points="1052,245.5234,1048,251.5234,1056,251.5234" style="stroke:#1963A0;stroke-width:1.0;"/><text fill="#000000" font-family="sans-serif" font-size="14" lengthAdjust="spacing" textLength="97" x="1061" y="253.752">Context context</text><line style="stroke:#181818;stroke-width:0.5;" x1="1042" x2="1526" y1="260.8281" y2="260.8281"/><ellipse cx="1052" cy="275.1328" fill="#84BE84" rx="3" ry="3" style="stroke:#038048;stroke-width:1.0;"/><text fill="#000000" font-family="sans-serif" font-size="14" lengthAdjust="spacing" textLength="460" x="1061" y="279.3613">RecyclerBookAdapter.MyViewHolder onCreateViewHolder(ViewGroup,int)</text><ellipse cx="1052" cy="292.7422" fill="#84BE84" rx="3" ry="3" style="stroke:#038048;stroke-width:1.0;"/><text fill="#000000" font-family="sans-serif" font-size="14" lengthAdjust="spacing" textLength="261" x="1061" y="296.9707">void onBindViewHolder(MyViewHolder,int)</text><ellipse cx="1052" cy="310.3516" fill="#84BE84" rx="3" ry="3" style="stroke:#038048;stroke-width:1.0;"/><text fill="#000000" font-family="sans-serif" font-size="14" lengthAdjust="spacing" textLength="113" x="1061" y="314.5801">int getItemCount()</text><ellipse cx="1052" cy="327.9609" fill="#84BE84" rx="3" ry="3" style="stroke:#038048;stroke-width:1.0;"/><text fill="#000000" font-family="sans-serif" font-size="14" lengthAdjust="spacing" textLength="348" x="1061" y="332.1895">void setOnItemClickListener(ClickListener1&lt;Bookings&gt;)</text></g><!--MD5=[2f15ed06298ecf9a5946f53f657c9afb]
class com.flag.cinema.RecyclerBookAdapter.MyViewHolder--><g id="elem_com.flag.cinema.RecyclerBookAdapter.MyViewHolder"><rect codeLine="40" fill="#F1F1F1" height="136.0469" id="com.flag.cinema.RecyclerBookAdapter.MyViewHolder" rx="2.5" ry="2.5" style="stroke:#181818;stroke-width:0.5;" width="261" x="1049.5" y="399"/><ellipse cx="1064.5" cy="415" fill="#ADD1B2" rx="11" ry="11" style="stroke:#181818;stroke-width:1.0;"/><path d="M1066.5,411.5 Q1066.7031,411 1066.9375,410.75 Q1067.1719,410.5 1067.4375,410.5 Q1067.9063,410.5 1068.2031,410.7813 Q1068.5,411.0625 1068.5,411.7188 L1068.5,413.2813 Q1068.5,413.9375 1068.2188,414.2188 Q1067.9375,414.5 1067.5,414.5 Q1067.1094,414.5 1066.8594,414.3281 Q1066.6094,414.1563 1066.5,413.7031 Q1066.4531,413.3906 1066.2813,413.2188 Q1065.9688,412.8906 1065.4063,412.7031 Q1064.8438,412.5 1064.2813,412.5 Q1063.5781,412.5 1062.9844,412.7813 Q1062.4063,413.0625 1061.9531,413.6875 Q1061.5,414.3125 1061.5,415.1719 L1061.5,416.0938 Q1061.5,417.125 1062.3438,417.8125 Q1063.1875,418.5 1064.6875,418.5 Q1065.5781,418.5 1066.2031,418.2969 Q1066.5625,418.1875 1066.9688,417.8281 Q1067.2344,417.625 1067.375,417.5625 Q1067.5156,417.5 1067.6875,417.5 Q1068.0156,417.5 1068.25,417.7656 Q1068.5,418.0156 1068.5,418.375 Q1068.5,418.7188 1068.1563,419.125 Q1067.6563,419.7188 1066.8594,420.0469 Q1065.8125,420.5 1064.5313,420.5 Q1063.0313,420.5 1061.8281,419.9063 Q1060.8594,419.4375 1060.1719,418.4219 Q1059.5,417.4063 1059.5,416.2031 L1059.5,415.1094 Q1059.5,413.8594 1060.0938,412.7656 Q1060.7031,411.6719 1061.75,411.0938 Q1062.8125,410.5 1064,410.5 Q1064.7188,410.5 1065.3438,410.75 Q1065.9688,411 1066.5,411.5 Z " fill="#000000"/><text fill="#000000" font-family="sans-serif" font-size="14" lengthAdjust="spacing" textLength="229" x="1078.5" y="420.7285">RecyclerBookAdapter.MyViewHolder</text><line style="stroke:#181818;stroke-width:0.5;" x1="1050.5" x2="1309.5" y1="431" y2="431"/><rect fill="none" height="6" style="stroke:#C82930;stroke-width:1.0;" width="6" x="1057.5" y="442.3047"/><text fill="#000000" font-family="sans-serif" font-size="14" lengthAdjust="spacing" textLength="144" x="1069.5" y="449.5332">TextView screendetails</text><rect fill="none" height="6" style="stroke:#C82930;stroke-width:1.0;" width="6" x="1057.5" y="459.9141"/><text fill="#000000" font-family="sans-serif" font-size="14" lengthAdjust="spacing" textLength="94" x="1069.5" y="467.1426">TextView seats</text><rect fill="none" height="6" style="stroke:#C82930;stroke-width:1.0;" width="6" x="1057.5" y="477.5234"/><text fill="#000000" font-family="sans-serif" font-size="14" lengthAdjust="spacing" textLength="82" x="1069.5" y="484.752">TextView title</text><rect fill="none" height="6" style="stroke:#C82930;stroke-width:1.0;" width="6" x="1057.5" y="495.1328"/><text fill="#000000" font-family="sans-serif" font-size="14" lengthAdjust="spacing" textLength="109" x="1069.5" y="502.3613">ImageView image</text><rect fill="none" height="6" style="stroke:#C82930;stroke-width:1.0;" width="6" x="1057.5" y="512.7422"/><text fill="#000000" font-family="sans-serif" font-size="14" lengthAdjust="spacing" textLength="121" x="1069.5" y="519.9707">CardView cardView</text><line style="stroke:#181818;stroke-width:0.5;" x1="1050.5" x2="1309.5" y1="527.0469" y2="527.0469"/></g><!--MD5=[50b45dae29dea719bf54af8a4c346870]
class com.flag.cinema.ClickListener1--><g id="elem_com.flag.cinema.ClickListener1"><rect codeLine="47" fill="#F1F1F1" height="65.6094" id="com.flag.cinema.ClickListener1" rx="2.5" ry="2.5" style="stroke:#181818;stroke-width:0.5;" width="147" x="1057.5" y="42"/><ellipse cx="1083.75" cy="58" fill="#B4A7E5" rx="11" ry="11" style="stroke:#181818;stroke-width:1.0;"/><path d="M1084.75,55 L1084.75,61 L1086.75,61 L1087.2344,61 L1087.75,61.625 L1087.75,62 L1087.75,62.375 L1087.2344,63 L1086.75,63 L1080.75,63 L1080.2656,63 L1079.75,62.375 L1079.75,62 L1079.75,61.625 L1080.2656,61 L1080.75,61 L1082.75,61 L1082.75,55 L1080.75,55 L1080.2656,55 L1079.75,54.375 L1079.75,54 L1079.75,53.625 L1080.2656,53 L1080.75,53 L1086.75,53 L1087.2344,53 L1087.75,53.625 L1087.75,54 L1087.75,54.375 L1087.2344,55 L1086.75,55 L1084.75,55 Z " fill="#000000"/><text fill="#000000" font-family="sans-serif" font-size="14" font-style="italic" lengthAdjust="spacing" textLength="90" x="1100.25" y="63.7285">ClickListener1</text><line style="stroke:#181818;stroke-width:0.5;" x1="1058.5" x2="1203.5" y1="74" y2="74"/><line style="stroke:#181818;stroke-width:0.5;" x1="1058.5" x2="1203.5" y1="82" y2="82"/><polygon fill="#4177AF" points="1068.5,92.3047,1064.5,98.3047,1072.5,98.3047" style="stroke:#1963A0;stroke-width:1.0;"/><text fill="#000000" font-family="sans-serif" font-size="14" lengthAdjust="spacing" textLength="121" x="1077.5" y="100.5332">void onItemClick(T)</text></g><!--MD5=[95607521f6fd72751c564f35c2cc2580]
class com.flag.cinema.Adapter--><g id="elem_com.flag.cinema.Adapter"><rect fill="#F1F1F1" height="48" id="com.flag.cinema.Adapter" rx="2.5" ry="2.5" style="stroke:#181818;stroke-width:0.5;" width="82" x="801" y="51"/><ellipse cx="816" cy="67" fill="#ADD1B2" rx="11" ry="11" style="stroke:#181818;stroke-width:1.0;"/><path d="M818,63.5 Q818.2031,63 818.4375,62.75 Q818.6719,62.5 818.9375,62.5 Q819.4063,62.5 819.7031,62.7813 Q820,63.0625 820,63.7188 L820,65.2813 Q820,65.9375 819.7188,66.2188 Q819.4375,66.5 819,66.5 Q818.6094,66.5 818.3594,66.3281 Q818.1094,66.1563 818,65.7031 Q817.9531,65.3906 817.7813,65.2188 Q817.4688,64.8906 816.9063,64.7031 Q816.3438,64.5 815.7813,64.5 Q815.0781,64.5 814.4844,64.7813 Q813.9063,65.0625 813.4531,65.6875 Q813,66.3125 813,67.1719 L813,68.0938 Q813,69.125 813.8438,69.8125 Q814.6875,70.5 816.1875,70.5 Q817.0781,70.5 817.7031,70.2969 Q818.0625,70.1875 818.4688,69.8281 Q818.7344,69.625 818.875,69.5625 Q819.0156,69.5 819.1875,69.5 Q819.5156,69.5 819.75,69.7656 Q820,70.0156 820,70.375 Q820,70.7188 819.6563,71.125 Q819.1563,71.7188 818.3594,72.0469 Q817.3125,72.5 816.0313,72.5 Q814.5313,72.5 813.3281,71.9063 Q812.3594,71.4375 811.6719,70.4219 Q811,69.4063 811,68.2031 L811,67.1094 Q811,65.8594 811.5938,64.7656 Q812.2031,63.6719 813.25,63.0938 Q814.3125,62.5 815.5,62.5 Q816.2188,62.5 816.8438,62.75 Q817.4688,63 818,63.5 Z " fill="#000000"/><text fill="#000000" font-family="sans-serif" font-size="14" lengthAdjust="spacing" textLength="50" x="830" y="72.7285">Adapter</text><line style="stroke:#181818;stroke-width:0.5;" x1="802" x2="882" y1="83" y2="83"/><line style="stroke:#181818;stroke-width:0.5;" x1="802" x2="882" y1="91" y2="91"/></g><!--MD5=[6656a0d7f41e1b0bcf97a5bdf3f1fc2d]
class com.flag.cinema.ViewHolder--><g id="elem_com.flag.cinema.ViewHolder"><rect fill="#F1F1F1" height="48" id="com.flag.cinema.ViewHolder" rx="2.5" ry="2.5" style="stroke:#181818;stroke-width:0.5;" width="102" x="541" y="229.5"/><ellipse cx="556" cy="245.5" fill="#ADD1B2" rx="11" ry="11" style="stroke:#181818;stroke-width:1.0;"/><path d="M558,242 Q558.2031,241.5 558.4375,241.25 Q558.6719,241 558.9375,241 Q559.4063,241 559.7031,241.2813 Q560,241.5625 560,242.2188 L560,243.7813 Q560,244.4375 559.7188,244.7188 Q559.4375,245 559,245 Q558.6094,245 558.3594,244.8281 Q558.1094,244.6563 558,244.2031 Q557.9531,243.8906 557.7813,243.7188 Q557.4688,243.3906 556.9063,243.2031 Q556.3438,243 555.7813,243 Q555.0781,243 554.4844,243.2813 Q553.9063,243.5625 553.4531,244.1875 Q553,244.8125 553,245.6719 L553,246.5938 Q553,247.625 553.8438,248.3125 Q554.6875,249 556.1875,249 Q557.0781,249 557.7031,248.7969 Q558.0625,248.6875 558.4688,248.3281 Q558.7344,248.125 558.875,248.0625 Q559.0156,248 559.1875,248 Q559.5156,248 559.75,248.2656 Q560,248.5156 560,248.875 Q560,249.2188 559.6563,249.625 Q559.1563,250.2188 558.3594,250.5469 Q557.3125,251 556.0313,251 Q554.5313,251 553.3281,250.4063 Q552.3594,249.9375 551.6719,248.9219 Q551,247.9063 551,246.7031 L551,245.6094 Q551,244.3594 551.5938,243.2656 Q552.2031,242.1719 553.25,241.5938 Q554.3125,241 555.5,241 Q556.2188,241 556.8438,241.25 Q557.4688,241.5 558,242 Z " fill="#000000"/><text fill="#000000" font-family="sans-serif" font-size="14" lengthAdjust="spacing" textLength="70" x="570" y="251.2285">ViewHolder</text><line style="stroke:#181818;stroke-width:0.5;" x1="542" x2="642" y1="261.5" y2="261.5"/><line style="stroke:#181818;stroke-width:0.5;" x1="542" x2="642" y1="269.5" y2="269.5"/></g><!--MD5=[669f43334762d1d27becacfd1f0e2e6d]
reverse link com.flag.cinema.Adapter to com.flag.cinema.RecyclerViewAdapter--><g id="link_com.flag.cinema.Adapter_com.flag.cinema.RecyclerViewAdapter"><path codeLine="52" d="M781.63,92.83 C717.53,110.85 613.36,140.56 524,168 C517.99,169.85 511.9,171.73 505.77,173.64 " fill="none" id="com.flag.cinema.Adapter-backto-com.flag.cinema.RecyclerViewAdapter" style="stroke:#181818;stroke-width:1.0;"/><polygon fill="none" points="779.81,86.07,800.96,87.41,783.59,99.55,779.81,86.07" style="stroke:#181818;stroke-width:1.0;"/></g><!--MD5=[82ca8f1fcc30147a73cb89cd887f6e98]
reverse link com.flag.cinema.RecyclerViewAdapter to com.flag.cinema.RecyclerViewAdapter.MyViewHolder--><g id="link_com.flag.cinema.RecyclerViewAdapter_com.flag.cinema.RecyclerViewAdapter.MyViewHolder"><path codeLine="53" d="M276.24,354.08 C278.11,369.26 280,384.62 281.75,398.88 " fill="none" id="com.flag.cinema.RecyclerViewAdapter-backto-com.flag.cinema.RecyclerViewAdapter.MyViewHolder" style="stroke:#181818;stroke-width:1.0;stroke-dasharray:7.0,7.0;"/><ellipse cx="275.3654" cy="346.9403" fill="#FFFFFF" rx="8" ry="8" style="stroke:#181818;stroke-width:1.0;"/><line style="stroke:#181818;stroke-width:1.0;" x1="276.3408" x2="274.39" y1="354.8806" y2="339"/><line style="stroke:#181818;stroke-width:1.0;" x1="267.4251" x2="283.3057" y1="347.9157" y2="345.9649"/></g><!--MD5=[cf67d8e836dcf114b7305d1615bfb2c1]
reverse link com.flag.cinema.ViewHolder to com.flag.cinema.RecyclerViewAdapter.MyViewHolder--><g id="link_com.flag.cinema.ViewHolder_com.flag.cinema.RecyclerViewAdapter.MyViewHolder"><path codeLine="54" d="M564.87,293.99 C553.16,309.24 538.57,326.08 523,339 C491.8,364.89 454.52,387.98 419.02,407.15 " fill="none" id="com.flag.cinema.ViewHolder-backto-com.flag.cinema.RecyclerViewAdapter.MyViewHolder" style="stroke:#181818;stroke-width:1.0;"/><polygon fill="none" points="559.31,289.74,576.78,277.74,570.6,298.01,559.31,289.74" style="stroke:#181818;stroke-width:1.0;"/></g><!--MD5=[0f4689960dac6aa1cbd5332c749a7ba2]
reverse link com.flag.cinema.Adapter to com.flag.cinema.NumberedAdapter--><g id="link_com.flag.cinema.Adapter_com.flag.cinema.NumberedAdapter"><path codeLine="55" d="M842,119.22 C842,136.4 842,156.7 842,176.21 " fill="none" id="com.flag.cinema.Adapter-backto-com.flag.cinema.NumberedAdapter" style="stroke:#181818;stroke-width:1.0;"/><polygon fill="none" points="835,119.07,842,99.07,849,119.07,835,119.07" style="stroke:#181818;stroke-width:1.0;"/></g><!--MD5=[8244d9dba259b513626a7841df3768eb]
reverse link com.flag.cinema.NumberedAdapter to com.flag.cinema.NumberedAdapter.ViewHolder--><g id="link_com.flag.cinema.NumberedAdapter_com.flag.cinema.NumberedAdapter.ViewHolder"><path codeLine="56" d="M780.76,343.22 C758.56,375.37 734.87,409.69 718.2,433.84 " fill="none" id="com.flag.cinema.NumberedAdapter-backto-com.flag.cinema.NumberedAdapter.ViewHolder" style="stroke:#181818;stroke-width:1.0;stroke-dasharray:7.0,7.0;"/><ellipse cx="784.961" cy="337.1477" fill="#FFFFFF" rx="8" ry="8" style="stroke:#181818;stroke-width:1.0;"/><line style="stroke:#181818;stroke-width:1.0;" x1="780.422" x2="789.5" y1="343.7353" y2="330.56"/><line style="stroke:#181818;stroke-width:1.0;" x1="778.3733" x2="791.5486" y1="332.6086" y2="341.6867"/></g><!--MD5=[0ec0c462ac06b5d8984f9084c9d5766d]
reverse link com.flag.cinema.ViewHolder to com.flag.cinema.NumberedAdapter.ViewHolder--><g id="link_com.flag.cinema.ViewHolder_com.flag.cinema.NumberedAdapter.ViewHolder"><path codeLine="57" d="M612.17,295.51 C632.01,335.86 661.9,396.66 680.12,433.7 " fill="none" id="com.flag.cinema.ViewHolder-backto-com.flag.cinema.NumberedAdapter.ViewHolder" style="stroke:#181818;stroke-width:1.0;"/><polygon fill="none" points="605.87,298.57,603.33,277.54,618.43,292.4,605.87,298.57" style="stroke:#181818;stroke-width:1.0;"/></g><!--MD5=[59ec34df2314da7e996581067de4ce7e]
reverse link com.flag.cinema.Adapter to com.flag.cinema.RecyclerBookAdapter--><g id="link_com.flag.cinema.Adapter_com.flag.cinema.RecyclerBookAdapter"><path codeLine="58" d="M901.88,99.91 C946.29,117.65 1009.71,142.97 1072.15,167.9 " fill="none" id="com.flag.cinema.Adapter-backto-com.flag.cinema.RecyclerBookAdapter" style="stroke:#181818;stroke-width:1.0;"/><polygon fill="none" points="899.16,106.36,883.19,92.45,904.36,93.36,899.16,106.36" style="stroke:#181818;stroke-width:1.0;"/></g><!--MD5=[0b6caa839622d95cd31c046e983d33ee]
reverse link com.flag.cinema.RecyclerBookAdapter to com.flag.cinema.RecyclerBookAdapter.MyViewHolder--><g id="link_com.flag.cinema.RecyclerBookAdapter_com.flag.cinema.RecyclerBookAdapter.MyViewHolder"><path codeLine="59" d="M1235.73,352.66 C1228.04,368.3 1220.24,384.17 1213,398.88 " fill="none" id="com.flag.cinema.RecyclerBookAdapter-backto-com.flag.cinema.RecyclerBookAdapter.MyViewHolder" style="stroke:#181818;stroke-width:1.0;stroke-dasharray:7.0,7.0;"/><ellipse cx="1238.9212" cy="346.1796" fill="#FFFFFF" rx="8" ry="8" style="stroke:#181818;stroke-width:1.0;"/><line style="stroke:#181818;stroke-width:1.0;" x1="1235.3923" x2="1242.45" y1="353.3593" y2="339"/><line style="stroke:#181818;stroke-width:1.0;" x1="1231.7415" x2="1246.1008" y1="342.6508" y2="349.7085"/></g><!--MD5=[edba399e4c36e26fbf984f250deb74aa]
reverse link com.flag.cinema.ViewHolder to com.flag.cinema.RecyclerBookAdapter.MyViewHolder--><g id="link_com.flag.cinema.ViewHolder_com.flag.cinema.RecyclerBookAdapter.MyViewHolder"><path codeLine="60" d="M616.44,294.62 C628.08,310.62 643.33,327.85 661,339 C724.88,379.32 917.56,419.74 1049.29,443.82 " fill="none" id="com.flag.cinema.ViewHolder-backto-com.flag.cinema.RecyclerBookAdapter.MyViewHolder" style="stroke:#181818;stroke-width:1.0;"/><polygon fill="none" points="610.47,298.28,605.1,277.78,622.08,290.46,610.47,298.28" style="stroke:#181818;stroke-width:1.0;"/></g><!--MD5=[f1db8be9f242b05d2d204d1e3ea9ce67]
@startuml
class com.flag.cinema.RecyclerViewAdapter {
- List<Movie> movieList
- ClickListener<Movie> clickListener
~ Context context
+ RecyclerViewAdapter.MyViewHolder onCreateViewHolder(ViewGroup,int)
+ void onBindViewHolder(RecyclerViewAdapter.MyViewHolder,int)
+ int getItemCount()
+ void setOnItemClickListener(ClickListener<Movie>)
}
class com.flag.cinema.RecyclerViewAdapter.MyViewHolder {
- TextView title
- TextView rating
- TextView genre
- ImageView image
- CardView cardView
}
interface com.flag.cinema.ClickListener {
~ void onItemClick(T)
}
class com.flag.cinema.NumberedAdapter {
- List<String> labels
+ {static} List<String> seats
+ {static} List<String> seatindex
+ ViewHolder onCreateViewHolder(ViewGroup,int)
+ void onBindViewHolder(ViewHolder,int)
+ int getItemCount()
}
class com.flag.cinema.NumberedAdapter.ViewHolder {
+ TextView textView
}
class com.flag.cinema.RecyclerBookAdapter {
- List<Bookings> bookList
- ClickListener1<Bookings> clickListener1
~ Context context
+ RecyclerBookAdapter.MyViewHolder onCreateViewHolder(ViewGroup,int)
+ void onBindViewHolder(MyViewHolder,int)
+ int getItemCount()
+ void setOnItemClickListener(ClickListener1<Bookings>)
}
class com.flag.cinema.RecyclerBookAdapter.MyViewHolder {
- TextView screendetails
- TextView seats
- TextView title
- ImageView image
- CardView cardView
}
interface com.flag.cinema.ClickListener1 {
~ void onItemClick(T)
}


com.flag.cinema.Adapter <|- - com.flag.cinema.RecyclerViewAdapter
com.flag.cinema.RecyclerViewAdapter +.. com.flag.cinema.RecyclerViewAdapter.MyViewHolder
com.flag.cinema.ViewHolder <|- - com.flag.cinema.RecyclerViewAdapter.MyViewHolder
com.flag.cinema.Adapter <|- - com.flag.cinema.NumberedAdapter
com.flag.cinema.NumberedAdapter +.. com.flag.cinema.NumberedAdapter.ViewHolder
com.flag.cinema.ViewHolder <|- - com.flag.cinema.NumberedAdapter.ViewHolder
com.flag.cinema.Adapter <|- - com.flag.cinema.RecyclerBookAdapter
com.flag.cinema.RecyclerBookAdapter +.. com.flag.cinema.RecyclerBookAdapter.MyViewHolder
com.flag.cinema.ViewHolder <|- - com.flag.cinema.RecyclerBookAdapter.MyViewHolder
@enduml

PlantUML version 1.2022.12(Sun Oct 23 21:12:26 MSK 2022)
(GPL source distribution)
Java Runtime: OpenJDK Runtime Environment
JVM: OpenJDK 64-Bit Server VM
Default Encoding: Cp1251
Language: ru
Country: RU
--></g></svg>