<?xml version="1.0" encoding="UTF-8" standalone="no"?><svg xmlns="http://www.w3.org/2000/svg" xmlns:xlink="http://www.w3.org/1999/xlink" contentStyleType="text/css" height="820px" preserveAspectRatio="none" style="width:889px;height:820px;background:#FFFFFF;" version="1.1" viewBox="0 0 889 820" width="889px" zoomAndPan="magnify"><defs/><g><!--MD5=[8250f42f60e762692c5f9f72b6cd7e4d]
cluster com.flag.cinema--><g id="cluster_com.flag.cinema"><path d="M8.5,6 L122.5,6 A3.75,3.75 0 0 1 125,8.5 L132,29.6094 L666.5,29.6094 A2.5,2.5 0 0 1 669,32.1094 L669,810.5 A2.5,2.5 0 0 1 666.5,813 L8.5,813 A2.5,2.5 0 0 1 6,810.5 L6,8.5 A2.5,2.5 0 0 1 8.5,6 " fill="none" style="stroke:#000000;stroke-width:1.5;"/><line style="stroke:#000000;stroke-width:1.5;" x1="6" x2="132" y1="29.6094" y2="29.6094"/><text fill="#000000" font-family="sans-serif" font-size="14" font-weight="bold" lengthAdjust="spacing" textLength="113" x="10" y="22.5332">com.flag.cinema</text></g><!--MD5=[5a11439e6a9c928fb0d5ec822813d7c6]
cluster androidx.appcompat.app--><g id="cluster_androidx.appcompat.app"><path d="M695.5,6 L869.5,6 A3.75,3.75 0 0 1 872,8.5 L879,29.6094 L879.5,29.6094 A2.5,2.5 0 0 1 882,32.1094 L882,103.5 A2.5,2.5 0 0 1 879.5,106 L695.5,106 A2.5,2.5 0 0 1 693,103.5 L693,8.5 A2.5,2.5 0 0 1 695.5,6 " fill="none" style="stroke:#000000;stroke-width:1.5;"/><line style="stroke:#000000;stroke-width:1.5;" x1="693" x2="879" y1="29.6094" y2="29.6094"/><text fill="#000000" font-family="sans-serif" font-size="14" font-weight="bold" lengthAdjust="spacing" textLength="173" x="697" y="22.5332">androidx.appcompat.app</text></g><!--MD5=[67885cf3b0811b332c176f459a2780ae]
class com.flag.cinema.TicketActivity--><g id="elem_com.flag.cinema.TicketActivity"><rect codeLine="1" fill="#F1F1F1" height="646.7188" id="com.flag.cinema.TicketActivity" rx="2.5" ry="2.5" style="stroke:#181818;stroke-width:0.5;" width="298" x="22" y="150"/><ellipse cx="125.75" cy="166" fill="#ADD1B2" rx="11" ry="11" style="stroke:#181818;stroke-width:1.0;"/><path d="M127.75,162.5 Q127.9531,162 128.1875,161.75 Q128.4219,161.5 128.6875,161.5 Q129.1563,161.5 129.4531,161.7813 Q129.75,162.0625 129.75,162.7188 L129.75,164.2813 Q129.75,164.9375 129.4688,165.2188 Q129.1875,165.5 128.75,165.5 Q128.3594,165.5 128.1094,165.3281 Q127.8594,165.1563 127.75,164.7031 Q127.7031,164.3906 127.5313,164.2188 Q127.2188,163.8906 126.6563,163.7031 Q126.0938,163.5 125.5313,163.5 Q124.8281,163.5 124.2344,163.7813 Q123.6563,164.0625 123.2031,164.6875 Q122.75,165.3125 122.75,166.1719 L122.75,167.0938 Q122.75,168.125 123.5938,168.8125 Q124.4375,169.5 125.9375,169.5 Q126.8281,169.5 127.4531,169.2969 Q127.8125,169.1875 128.2188,168.8281 Q128.4844,168.625 128.625,168.5625 Q128.7656,168.5 128.9375,168.5 Q129.2656,168.5 129.5,168.7656 Q129.75,169.0156 129.75,169.375 Q129.75,169.7188 129.4063,170.125 Q128.9063,170.7188 128.1094,171.0469 Q127.0625,171.5 125.7813,171.5 Q124.2813,171.5 123.0781,170.9063 Q122.1094,170.4375 121.4219,169.4219 Q120.75,168.4063 120.75,167.2031 L120.75,166.1094 Q120.75,164.8594 121.3438,163.7656 Q121.9531,162.6719 123,162.0938 Q124.0625,161.5 125.25,161.5 Q125.9688,161.5 126.5938,161.75 Q127.2188,162 127.75,162.5 Z " fill="#000000"/><text fill="#000000" font-family="sans-serif" font-size="14" lengthAdjust="spacing" textLength="82" x="146.25" y="171.7285">TicketActivity</text><line style="stroke:#181818;stroke-width:0.5;" x1="23" x2="319" y1="182" y2="182"/><polygon fill="none" points="33,192.3047,29,198.3047,37,198.3047" style="stroke:#1963A0;stroke-width:1.0;"/><text fill="#000000" font-family="sans-serif" font-size="14" lengthAdjust="spacing" textLength="78" x="42" y="200.5332">Movie movie</text><polygon fill="none" points="33,209.9141,29,215.9141,37,215.9141" style="stroke:#1963A0;stroke-width:1.0;"/><text fill="#000000" font-family="sans-serif" font-size="14" lengthAdjust="spacing" textLength="57" x="42" y="218.1426">int image</text><polygon fill="none" points="33,227.5234,29,233.5234,37,233.5234" style="stroke:#1963A0;stroke-width:1.0;"/><text fill="#000000" font-family="sans-serif" font-size="14" lengthAdjust="spacing" textLength="63" x="42" y="235.752">String title</text><rect fill="none" height="6" style="stroke:#C82930;stroke-width:1.0;" width="6" x="30" y="246.1328"/><text fill="#000000" font-family="sans-serif" font-size="14" lengthAdjust="spacing" textLength="109" x="42" y="253.3613">TextView titleText</text><rect fill="none" height="6" style="stroke:#C82930;stroke-width:1.0;" width="6" x="30" y="263.7422"/><text fill="#000000" font-family="sans-serif" font-size="14" lengthAdjust="spacing" textLength="123" x="42" y="270.9707">TextView ratingText</text><rect fill="none" height="6" style="stroke:#C82930;stroke-width:1.0;" width="6" x="30" y="281.3516"/><text fill="#000000" font-family="sans-serif" font-size="14" lengthAdjust="spacing" textLength="124" x="42" y="288.5801">TextView genreText</text><rect fill="none" height="6" style="stroke:#C82930;stroke-width:1.0;" width="6" x="30" y="298.9609"/><text fill="#000000" font-family="sans-serif" font-size="14" lengthAdjust="spacing" textLength="156" x="42" y="306.1895">TextView descriptionText</text><rect fill="none" height="6" style="stroke:#C82930;stroke-width:1.0;" width="6" x="30" y="316.5703"/><text fill="#000000" font-family="sans-serif" font-size="14" lengthAdjust="spacing" textLength="160" x="42" y="323.7988">TextView movie_category</text><rect fill="none" height="6" style="stroke:#C82930;stroke-width:1.0;" width="6" x="30" y="334.1797"/><text fill="#000000" font-family="sans-serif" font-size="14" lengthAdjust="spacing" textLength="143" x="42" y="341.4082">TextView number_Text</text><rect fill="none" height="6" style="stroke:#C82930;stroke-width:1.0;" width="6" x="30" y="351.7891"/><text fill="#000000" font-family="sans-serif" font-size="14" lengthAdjust="spacing" textLength="113" x="42" y="359.0176">TextView timeText</text><rect fill="none" height="6" style="stroke:#C82930;stroke-width:1.0;" width="6" x="30" y="369.3984"/><text fill="#000000" font-family="sans-serif" font-size="14" lengthAdjust="spacing" textLength="118" x="42" y="376.627">TextView priceText</text><rect fill="none" height="6" style="stroke:#C82930;stroke-width:1.0;" width="6" x="30" y="387.0078"/><text fill="#000000" font-family="sans-serif" font-size="14" lengthAdjust="spacing" textLength="114" x="42" y="394.2363">TextView seatText</text><rect fill="none" height="6" style="stroke:#C82930;stroke-width:1.0;" width="6" x="30" y="404.6172"/><text fill="#000000" font-family="sans-serif" font-size="14" lengthAdjust="spacing" textLength="143" x="42" y="411.8457">TextView date_tv_data</text><rect fill="none" height="6" style="stroke:#C82930;stroke-width:1.0;" width="6" x="30" y="422.2266"/><text fill="#000000" font-family="sans-serif" font-size="14" lengthAdjust="spacing" textLength="115" x="42" y="429.4551">TextView userview</text><rect fill="none" height="6" style="stroke:#C82930;stroke-width:1.0;" width="6" x="30" y="439.8359"/><text fill="#000000" font-family="sans-serif" font-size="14" lengthAdjust="spacing" textLength="96" x="42" y="447.0645">TextView user1</text><rect fill="none" height="6" style="stroke:#C82930;stroke-width:1.0;" width="6" x="30" y="457.4453"/><text fill="#000000" font-family="sans-serif" font-size="14" lengthAdjust="spacing" textLength="112" x="42" y="464.6738">TextView duration</text><rect fill="none" height="6" style="stroke:#C82930;stroke-width:1.0;" width="6" x="30" y="475.0547"/><text fill="#000000" font-family="sans-serif" font-size="14" lengthAdjust="spacing" textLength="136" x="42" y="482.2832">ImageView imageText</text><rect fill="none" height="6" style="stroke:#C82930;stroke-width:1.0;" width="6" x="30" y="492.6641"/><text fill="#000000" font-family="sans-serif" font-size="14" lengthAdjust="spacing" textLength="92" x="42" y="499.8926">Button btn_del</text><rect fill="none" height="6" style="stroke:#C82930;stroke-width:1.0;" width="6" x="30" y="510.2734"/><text fill="#000000" font-family="sans-serif" font-size="14" lengthAdjust="spacing" textLength="209" x="42" y="517.502">FloatingActionButton play_button</text><polygon fill="none" points="33,526.8828,29,532.8828,37,532.8828" style="stroke:#1963A0;stroke-width:1.0;"/><text fill="#000000" font-family="sans-serif" font-size="14" lengthAdjust="spacing" textLength="195" x="42" y="535.1113">SQLiteHelper database_helper</text><polygon fill="none" points="33,544.4922,29,550.4922,37,550.4922" style="stroke:#1963A0;stroke-width:1.0;"/><text fill="#000000" font-family="sans-serif" font-size="14" lengthAdjust="spacing" textLength="247" x="42" y="552.7207">SharedPreferences sharedpreferences</text><polygon fill="none" points="33,562.1016,29,568.1016,37,568.1016" style="stroke:#1963A0;stroke-width:1.0;"/><text fill="#000000" font-family="sans-serif" font-size="14" lengthAdjust="spacing" textLength="229" x="42" y="570.3301">SQLiteDatabase sqLiteDatabaseObj</text><polygon fill="none" points="33,579.7109,29,585.7109,37,585.7109" style="stroke:#1963A0;stroke-width:1.0;"/><text fill="#000000" font-family="sans-serif" font-size="14" lengthAdjust="spacing" textLength="86" x="42" y="587.9395">Bundle extras</text><polygon fill="none" points="33,597.3203,29,603.3203,37,603.3203" style="stroke:#1963A0;stroke-width:1.0;"/><text fill="#000000" font-family="sans-serif" font-size="14" lengthAdjust="spacing" textLength="74" x="42" y="605.5488">Intent intent</text><polygon fill="none" points="33,614.9297,29,620.9297,37,620.9297" style="stroke:#1963A0;stroke-width:1.0;"/><text fill="#000000" font-family="sans-serif" font-size="14" lengthAdjust="spacing" textLength="59" x="42" y="623.1582">Context c</text><ellipse cx="33" cy="636.5391" fill="none" rx="3" ry="3" style="stroke:#038048;stroke-width:1.0;"/><text fill="#000000" font-family="sans-serif" font-size="14" lengthAdjust="spacing" text-decoration="underline" textLength="128" x="42" y="640.7676">String mypreference</text><ellipse cx="33" cy="654.1484" fill="none" rx="3" ry="3" style="stroke:#038048;stroke-width:1.0;"/><text fill="#000000" font-family="sans-serif" font-size="14" lengthAdjust="spacing" text-decoration="underline" textLength="75" x="42" y="658.377">String Email</text><line style="stroke:#181818;stroke-width:0.5;" x1="23" x2="319" y1="665.4531" y2="665.4531"/><polygon fill="#FFFF44" points="33,674.7578,37,678.7578,33,682.7578,29,678.7578" style="stroke:#B38D22;stroke-width:1.0;"/><text fill="#000000" font-family="sans-serif" font-size="14" lengthAdjust="spacing" textLength="143" x="42" y="683.9863">void onCreate(Bundle)</text><rect fill="#F24D5C" height="6" style="stroke:#C82930;stroke-width:1.0;" width="6" x="30" y="694.3672"/><text fill="#000000" font-family="sans-serif" font-size="14" lengthAdjust="spacing" textLength="142" x="42" y="701.5957">void prepareMovie(int)</text><rect fill="#F24D5C" height="6" style="stroke:#C82930;stroke-width:1.0;" width="6" x="30" y="711.9766"/><text fill="#000000" font-family="sans-serif" font-size="14" lengthAdjust="spacing" textLength="126" x="42" y="719.2051">void deleteBook(int)</text><ellipse cx="33" cy="732.5859" fill="#84BE84" rx="3" ry="3" style="stroke:#038048;stroke-width:1.0;"/><text fill="#000000" font-family="sans-serif" font-size="14" lengthAdjust="spacing" textLength="272" x="42" y="736.8145">boolean onOptionsItemSelected(MenuItem)</text><ellipse cx="33" cy="750.1953" fill="#84BE84" rx="3" ry="3" style="stroke:#038048;stroke-width:1.0;"/><text fill="#000000" font-family="sans-serif" font-size="14" lengthAdjust="spacing" textLength="243" x="42" y="754.4238">boolean onCreateOptionsMenu(Menu)</text><ellipse cx="33" cy="767.8047" fill="#84BE84" rx="3" ry="3" style="stroke:#038048;stroke-width:1.0;"/><text fill="#000000" font-family="sans-serif" font-size="14" lengthAdjust="spacing" textLength="115" x="42" y="772.0332">void onClick(View)</text><ellipse cx="33" cy="785.4141" fill="#84BE84" rx="3" ry="3" style="stroke:#038048;stroke-width:1.0;"/><text fill="#000000" font-family="sans-serif" font-size="14" lengthAdjust="spacing" textLength="97" x="42" y="789.6426">void onDelete()</text></g><!--MD5=[c4337df7b83f4818d465e4f8e49737b7]
class com.flag.cinema.ScreenSelection--><g id="elem_com.flag.cinema.ScreenSelection"><rect codeLine="37" fill="#F1F1F1" height="453.0156" id="com.flag.cinema.ScreenSelection" rx="2.5" ry="2.5" style="stroke:#181818;stroke-width:0.5;" width="298" x="355" y="247"/><ellipse cx="448.25" cy="263" fill="#ADD1B2" rx="11" ry="11" style="stroke:#181818;stroke-width:1.0;"/><path d="M450.25,259.5 Q450.4531,259 450.6875,258.75 Q450.9219,258.5 451.1875,258.5 Q451.6563,258.5 451.9531,258.7813 Q452.25,259.0625 452.25,259.7188 L452.25,261.2813 Q452.25,261.9375 451.9688,262.2188 Q451.6875,262.5 451.25,262.5 Q450.8594,262.5 450.6094,262.3281 Q450.3594,262.1563 450.25,261.7031 Q450.2031,261.3906 450.0313,261.2188 Q449.7188,260.8906 449.1563,260.7031 Q448.5938,260.5 448.0313,260.5 Q447.3281,260.5 446.7344,260.7813 Q446.1563,261.0625 445.7031,261.6875 Q445.25,262.3125 445.25,263.1719 L445.25,264.0938 Q445.25,265.125 446.0938,265.8125 Q446.9375,266.5 448.4375,266.5 Q449.3281,266.5 449.9531,266.2969 Q450.3125,266.1875 450.7188,265.8281 Q450.9844,265.625 451.125,265.5625 Q451.2656,265.5 451.4375,265.5 Q451.7656,265.5 452,265.7656 Q452.25,266.0156 452.25,266.375 Q452.25,266.7188 451.9063,267.125 Q451.4063,267.7188 450.6094,268.0469 Q449.5625,268.5 448.2813,268.5 Q446.7813,268.5 445.5781,267.9063 Q444.6094,267.4375 443.9219,266.4219 Q443.25,265.4063 443.25,264.2031 L443.25,263.1094 Q443.25,261.8594 443.8438,260.7656 Q444.4531,259.6719 445.5,259.0938 Q446.5625,258.5 447.75,258.5 Q448.4688,258.5 449.0938,258.75 Q449.7188,259 450.25,259.5 Z " fill="#000000"/><text fill="#000000" font-family="sans-serif" font-size="14" lengthAdjust="spacing" textLength="103" x="468.75" y="268.7285">ScreenSelection</text><line style="stroke:#181818;stroke-width:0.5;" x1="356" x2="652" y1="279" y2="279"/><polygon fill="none" points="366,289.3047,362,295.3047,370,295.3047" style="stroke:#1963A0;stroke-width:1.0;"/><text fill="#000000" font-family="sans-serif" font-size="14" lengthAdjust="spacing" textLength="57" x="375" y="297.5332">int image</text><polygon fill="none" points="366,306.9141,362,312.9141,370,312.9141" style="stroke:#1963A0;stroke-width:1.0;"/><text fill="#000000" font-family="sans-serif" font-size="14" lengthAdjust="spacing" textLength="63" x="375" y="315.1426">String title</text><rect fill="none" height="6" style="stroke:#C82930;stroke-width:1.0;" width="6" x="363" y="325.5234"/><text fill="#000000" font-family="sans-serif" font-size="14" lengthAdjust="spacing" textLength="109" x="375" y="332.752">TextView titleText</text><rect fill="none" height="6" style="stroke:#C82930;stroke-width:1.0;" width="6" x="363" y="343.1328"/><text fill="#000000" font-family="sans-serif" font-size="14" lengthAdjust="spacing" textLength="123" x="375" y="350.3613">TextView ratingText</text><rect fill="none" height="6" style="stroke:#C82930;stroke-width:1.0;" width="6" x="363" y="360.7422"/><text fill="#000000" font-family="sans-serif" font-size="14" lengthAdjust="spacing" textLength="124" x="375" y="367.9707">TextView genreText</text><rect fill="none" height="6" style="stroke:#C82930;stroke-width:1.0;" width="6" x="363" y="378.3516"/><text fill="#000000" font-family="sans-serif" font-size="14" lengthAdjust="spacing" textLength="160" x="375" y="385.5801">TextView movie_category</text><rect fill="none" height="6" style="stroke:#C82930;stroke-width:1.0;" width="6" x="363" y="395.9609"/><text fill="#000000" font-family="sans-serif" font-size="14" lengthAdjust="spacing" textLength="156" x="375" y="403.1895">TextView descriptionText</text><rect fill="none" height="6" style="stroke:#C82930;stroke-width:1.0;" width="6" x="363" y="413.5703"/><text fill="#000000" font-family="sans-serif" font-size="14" lengthAdjust="spacing" textLength="143" x="375" y="420.7988">TextView date_tv_data</text><rect fill="none" height="6" style="stroke:#C82930;stroke-width:1.0;" width="6" x="363" y="431.1797"/><text fill="#000000" font-family="sans-serif" font-size="14" lengthAdjust="spacing" textLength="118" x="375" y="438.4082">TextView priceText</text><rect fill="none" height="6" style="stroke:#C82930;stroke-width:1.0;" width="6" x="363" y="448.7891"/><text fill="#000000" font-family="sans-serif" font-size="14" lengthAdjust="spacing" textLength="136" x="375" y="456.0176">ImageView imageText</text><polygon fill="none" points="366,465.3984,362,471.3984,370,471.3984" style="stroke:#1963A0;stroke-width:1.0;"/><text fill="#000000" font-family="sans-serif" font-size="14" lengthAdjust="spacing" textLength="195" x="375" y="473.627">SQLiteHelper database_helper</text><polygon fill="none" points="366,483.0078,362,489.0078,370,489.0078" style="stroke:#1963A0;stroke-width:1.0;"/><text fill="#000000" font-family="sans-serif" font-size="14" lengthAdjust="spacing" textLength="229" x="375" y="491.2363">SQLiteDatabase sqLiteDatabaseObj</text><rect fill="none" height="6" style="stroke:#C82930;stroke-width:1.0;" width="6" x="363" y="501.6172"/><text fill="#000000" font-family="sans-serif" font-size="14" lengthAdjust="spacing" textLength="101" x="375" y="508.8457">Button btn_date</text><rect fill="none" height="6" style="stroke:#C82930;stroke-width:1.0;" width="6" x="363" y="519.2266"/><text fill="#000000" font-family="sans-serif" font-size="14" lengthAdjust="spacing" textLength="209" x="375" y="526.4551">FloatingActionButton play_button</text><rect fill="none" height="6" style="stroke:#C82930;stroke-width:1.0;" width="6" x="363" y="536.8359"/><text fill="#000000" font-family="sans-serif" font-size="14" lengthAdjust="spacing" textLength="69" x="375" y="544.0645">String date</text><polygon fill="none" points="366,553.4453,362,559.4453,370,559.4453" style="stroke:#1963A0;stroke-width:1.0;"/><text fill="#000000" font-family="sans-serif" font-size="14" lengthAdjust="spacing" textLength="86" x="375" y="561.6738">Bundle extras</text><polygon fill="none" points="366,571.0547,362,577.0547,370,577.0547" style="stroke:#1963A0;stroke-width:1.0;"/><text fill="#000000" font-family="sans-serif" font-size="14" lengthAdjust="spacing" textLength="74" x="375" y="579.2832">Intent intent</text><polygon fill="none" points="366,588.6641,362,594.6641,370,594.6641" style="stroke:#1963A0;stroke-width:1.0;"/><text fill="#000000" font-family="sans-serif" font-size="14" lengthAdjust="spacing" textLength="59" x="375" y="596.8926">Context c</text><line style="stroke:#181818;stroke-width:0.5;" x1="356" x2="652" y1="603.9688" y2="603.9688"/><polygon fill="#FFFF44" points="366,613.2734,370,617.2734,366,621.2734,362,617.2734" style="stroke:#B38D22;stroke-width:1.0;"/><text fill="#000000" font-family="sans-serif" font-size="14" lengthAdjust="spacing" textLength="143" x="375" y="622.502">void onCreate(Bundle)</text><rect fill="#F24D5C" height="6" style="stroke:#C82930;stroke-width:1.0;" width="6" x="363" y="632.8828"/><text fill="#000000" font-family="sans-serif" font-size="14" lengthAdjust="spacing" textLength="138" x="375" y="640.1113">void sendData(String)</text><ellipse cx="366" cy="653.4922" fill="#84BE84" rx="3" ry="3" style="stroke:#038048;stroke-width:1.0;"/><text fill="#000000" font-family="sans-serif" font-size="14" lengthAdjust="spacing" textLength="272" x="375" y="657.7207">boolean onOptionsItemSelected(MenuItem)</text><ellipse cx="366" cy="671.1016" fill="#84BE84" rx="3" ry="3" style="stroke:#038048;stroke-width:1.0;"/><text fill="#000000" font-family="sans-serif" font-size="14" lengthAdjust="spacing" textLength="243" x="375" y="675.3301">boolean onCreateOptionsMenu(Menu)</text><ellipse cx="366" cy="688.7109" fill="#84BE84" rx="3" ry="3" style="stroke:#038048;stroke-width:1.0;"/><text fill="#000000" font-family="sans-serif" font-size="14" lengthAdjust="spacing" textLength="115" x="375" y="692.9395">void onClick(View)</text></g><!--MD5=[6c8a9877c9e32bcf4db8f7744b84be15]
class com.flag.cinema.OnClickListener--><g id="elem_com.flag.cinema.OnClickListener"><rect fill="#F1F1F1" height="48" id="com.flag.cinema.OnClickListener" rx="2.5" ry="2.5" style="stroke:#181818;stroke-width:0.5;" width="132" x="271" y="42"/><ellipse cx="286" cy="58" fill="#ADD1B2" rx="11" ry="11" style="stroke:#181818;stroke-width:1.0;"/><path d="M288,54.5 Q288.2031,54 288.4375,53.75 Q288.6719,53.5 288.9375,53.5 Q289.4063,53.5 289.7031,53.7813 Q290,54.0625 290,54.7188 L290,56.2813 Q290,56.9375 289.7188,57.2188 Q289.4375,57.5 289,57.5 Q288.6094,57.5 288.3594,57.3281 Q288.1094,57.1563 288,56.7031 Q287.9531,56.3906 287.7813,56.2188 Q287.4688,55.8906 286.9063,55.7031 Q286.3438,55.5 285.7813,55.5 Q285.0781,55.5 284.4844,55.7813 Q283.9063,56.0625 283.4531,56.6875 Q283,57.3125 283,58.1719 L283,59.0938 Q283,60.125 283.8438,60.8125 Q284.6875,61.5 286.1875,61.5 Q287.0781,61.5 287.7031,61.2969 Q288.0625,61.1875 288.4688,60.8281 Q288.7344,60.625 288.875,60.5625 Q289.0156,60.5 289.1875,60.5 Q289.5156,60.5 289.75,60.7656 Q290,61.0156 290,61.375 Q290,61.7188 289.6563,62.125 Q289.1563,62.7188 288.3594,63.0469 Q287.3125,63.5 286.0313,63.5 Q284.5313,63.5 283.3281,62.9063 Q282.3594,62.4375 281.6719,61.4219 Q281,60.4063 281,59.2031 L281,58.1094 Q281,56.8594 281.5938,55.7656 Q282.2031,54.6719 283.25,54.0938 Q284.3125,53.5 285.5,53.5 Q286.2188,53.5 286.8438,53.75 Q287.4688,54 288,54.5 Z " fill="#000000"/><text fill="#000000" font-family="sans-serif" font-size="14" lengthAdjust="spacing" textLength="100" x="300" y="63.7285">OnClickListener</text><line style="stroke:#181818;stroke-width:0.5;" x1="272" x2="402" y1="74" y2="74"/><line style="stroke:#181818;stroke-width:0.5;" x1="272" x2="402" y1="82" y2="82"/></g><!--MD5=[6971ca23cf0557f0436b13ef124bfeb7]
class androidx.appcompat.app.AppCompatActivity--><g id="elem_androidx.appcompat.app.AppCompatActivity"><rect fill="#F1F1F1" height="48" id="androidx.appcompat.app.AppCompatActivity" rx="2.5" ry="2.5" style="stroke:#181818;stroke-width:0.5;" width="150" x="709" y="42"/><ellipse cx="724" cy="58" fill="#ADD1B2" rx="11" ry="11" style="stroke:#181818;stroke-width:1.0;"/><path d="M726,54.5 Q726.2031,54 726.4375,53.75 Q726.6719,53.5 726.9375,53.5 Q727.4063,53.5 727.7031,53.7813 Q728,54.0625 728,54.7188 L728,56.2813 Q728,56.9375 727.7188,57.2188 Q727.4375,57.5 727,57.5 Q726.6094,57.5 726.3594,57.3281 Q726.1094,57.1563 726,56.7031 Q725.9531,56.3906 725.7813,56.2188 Q725.4688,55.8906 724.9063,55.7031 Q724.3438,55.5 723.7813,55.5 Q723.0781,55.5 722.4844,55.7813 Q721.9063,56.0625 721.4531,56.6875 Q721,57.3125 721,58.1719 L721,59.0938 Q721,60.125 721.8438,60.8125 Q722.6875,61.5 724.1875,61.5 Q725.0781,61.5 725.7031,61.2969 Q726.0625,61.1875 726.4688,60.8281 Q726.7344,60.625 726.875,60.5625 Q727.0156,60.5 727.1875,60.5 Q727.5156,60.5 727.75,60.7656 Q728,61.0156 728,61.375 Q728,61.7188 727.6563,62.125 Q727.1563,62.7188 726.3594,63.0469 Q725.3125,63.5 724.0313,63.5 Q722.5313,63.5 721.3281,62.9063 Q720.3594,62.4375 719.6719,61.4219 Q719,60.4063 719,59.2031 L719,58.1094 Q719,56.8594 719.5938,55.7656 Q720.2031,54.6719 721.25,54.0938 Q722.3125,53.5 723.5,53.5 Q724.2188,53.5 724.8438,53.75 Q725.4688,54 726,54.5 Z " fill="#000000"/><text fill="#000000" font-family="sans-serif" font-size="14" lengthAdjust="spacing" textLength="118" x="738" y="63.7285">AppCompatActivity</text><line style="stroke:#181818;stroke-width:0.5;" x1="710" x2="858" y1="74" y2="74"/><line style="stroke:#181818;stroke-width:0.5;" x1="710" x2="858" y1="82" y2="82"/></g><!--MD5=[a3d11b8357015ce3ef616c76292ca2b3]
reverse link com.flag.cinema.OnClickListener to com.flag.cinema.TicketActivity--><g id="link_com.flag.cinema.OnClickListener_com.flag.cinema.TicketActivity"><path codeLine="64" d="M319.74,109.16 C314.92,120.93 309.28,134.71 303.07,149.88 " fill="none" id="com.flag.cinema.OnClickListener-backto-com.flag.cinema.TicketActivity" style="stroke:#181818;stroke-width:1.0;stroke-dasharray:7.0,7.0;"/><polygon fill="none" points="313.42,106.11,327.48,90.26,326.38,111.42,313.42,106.11" style="stroke:#181818;stroke-width:1.0;"/></g><!--MD5=[97cf994e23c1ddfc78e9725adaaf8cee]
reverse link androidx.appcompat.app.AppCompatActivity to com.flag.cinema.TicketActivity--><g id="link_androidx.appcompat.app.AppCompatActivity_com.flag.cinema.TicketActivity"><path codeLine="65" d="M717.39,97.89 C701.79,104.09 685.04,109.94 669,114 C597.28,132.17 399.04,108.18 338,150 C331.89,154.19 325.99,158.67 320.29,163.41 " fill="none" id="androidx.appcompat.app.AppCompatActivity-backto-com.flag.cinema.TicketActivity" style="stroke:#181818;stroke-width:1.0;"/><polygon fill="none" points="714.9,91.34,736.05,90.1,720.29,104.26,714.9,91.34" style="stroke:#181818;stroke-width:1.0;"/></g><!--MD5=[540a4f4fde771321cf4f5229f1d268f4]
reverse link com.flag.cinema.OnClickListener to com.flag.cinema.ScreenSelection--><g id="link_com.flag.cinema.OnClickListener_com.flag.cinema.ScreenSelection"><path codeLine="66" d="M354.36,109.15 C368.37,143.17 389.27,193.93 411.05,246.79 " fill="none" id="com.flag.cinema.OnClickListener-backto-com.flag.cinema.ScreenSelection" style="stroke:#181818;stroke-width:1.0;stroke-dasharray:7.0,7.0;"/><polygon fill="none" points="347.72,111.42,346.58,90.26,360.67,106.09,347.72,111.42" style="stroke:#181818;stroke-width:1.0;"/></g><!--MD5=[1170ac8da9664be3f084457d97afb461]
reverse link androidx.appcompat.app.AppCompatActivity to com.flag.cinema.ScreenSelection--><g id="link_androidx.appcompat.app.AppCompatActivity_com.flag.cinema.ScreenSelection"><path codeLine="67" d="M756.57,106.72 C731.67,142.79 692.84,199.01 653.04,256.66 " fill="none" id="androidx.appcompat.app.AppCompatActivity-backto-com.flag.cinema.ScreenSelection" style="stroke:#181818;stroke-width:1.0;"/><polygon fill="none" points="750.82,102.74,767.94,90.26,762.34,110.69,750.82,102.74" style="stroke:#181818;stroke-width:1.0;"/></g><!--MD5=[bf31918333b07e7226a24703b176f775]
@startuml
class com.flag.cinema.TicketActivity {
~ Movie movie
~ int image
~ String title
- TextView titleText
- TextView ratingText
- TextView genreText
- TextView descriptionText
- TextView movie_category
- TextView number_Text
- TextView timeText
- TextView priceText
- TextView seatText
- TextView date_tv_data
- TextView userview
- TextView user1
- TextView duration
- ImageView imageText
- Button btn_del
- FloatingActionButton play_button
~ SQLiteHelper database_helper
~ SharedPreferences sharedpreferences
~ SQLiteDatabase sqLiteDatabaseObj
~ Bundle extras
~ Intent intent
~ Context c
+ {static} String mypreference
+ {static} String Email
# void onCreate(Bundle)
- void prepareMovie(int)
- void deleteBook(int)
+ boolean onOptionsItemSelected(MenuItem)
+ boolean onCreateOptionsMenu(Menu)
+ void onClick(View)
+ void onDelete()
}
class com.flag.cinema.ScreenSelection {
~ int image
~ String title
- TextView titleText
- TextView ratingText
- TextView genreText
- TextView movie_category
- TextView descriptionText
- TextView date_tv_data
- TextView priceText
- ImageView imageText
~ SQLiteHelper database_helper
~ SQLiteDatabase sqLiteDatabaseObj
- Button btn_date
- FloatingActionButton play_button
- String date
~ Bundle extras
~ Intent intent
~ Context c
# void onCreate(Bundle)
- void sendData(String)
+ boolean onOptionsItemSelected(MenuItem)
+ boolean onCreateOptionsMenu(Menu)
+ void onClick(View)
}


com.flag.cinema.OnClickListener <|.. com.flag.cinema.TicketActivity
androidx.appcompat.app.AppCompatActivity <|- - com.flag.cinema.TicketActivity
com.flag.cinema.OnClickListener <|.. com.flag.cinema.ScreenSelection
androidx.appcompat.app.AppCompatActivity <|- - com.flag.cinema.ScreenSelection
@enduml

PlantUML version 1.2022.12(Sun Oct 23 21:12:26 MSK 2022)
(GPL source distribution)
Java Runtime: OpenJDK Runtime Environment
JVM: OpenJDK 64-Bit Server VM
Default Encoding: Cp1251
Language: ru
Country: RU
--></g></svg>