<?xml version="1.0" encoding="UTF-8" standalone="no"?><svg xmlns="http://www.w3.org/2000/svg" xmlns:xlink="http://www.w3.org/1999/xlink" contentStyleType="text/css" height="417px" preserveAspectRatio="none" style="width:407px;height:417px;background:#FFFFFF;" version="1.1" viewBox="0 0 407 417" width="407.4px" zoomAndPan="magnify"><defs/><g><!--MD5=[8250f42f60e762692c5f9f72b6cd7e4d]
cluster com.flag.cinema--><g id="cluster_com.flag.cinema"><path d="M5.1,78 L73.5,78 A2.25,2.25 0 0 1 75,79.5 L79.2,92.1656 L401.7,92.1656 A1.5,1.5 0 0 1 403.2,93.6656 L403.2,411.3 A1.5,1.5 0 0 1 401.7,412.8 L5.1,412.8 A1.5,1.5 0 0 1 3.6,411.3 L3.6,79.5 A1.5,1.5 0 0 1 5.1,78 " fill="none" style="stroke:#000000;stroke-width:0.8999999999999999;"/><line style="stroke:#000000;stroke-width:0.8999999999999999;" x1="3.6" x2="79.2" y1="92.1656" y2="92.1656"/><text fill="#000000" font-family="sans-serif" font-size="8.4" font-weight="bold" lengthAdjust="spacing" textLength="67.8" x="6" y="87.9199">com.flag.cinema</text></g><!--MD5=[667c88e7a8fb644be37850253177bc6c]
cluster androidx.recyclerview.widget--><g id="cluster_androidx.recyclerview.widget"><path d="M18.9,3.6 L143.7,3.6 A2.25,2.25 0 0 1 145.2,5.1 L149.4,17.7656 L149.7,17.7656 A1.5,1.5 0 0 1 151.2,19.2656 L151.2,62.1 A1.5,1.5 0 0 1 149.7,63.6 L18.9,63.6 A1.5,1.5 0 0 1 17.4,62.1 L17.4,5.1 A1.5,1.5 0 0 1 18.9,3.6 " fill="none" style="stroke:#000000;stroke-width:0.8999999999999999;"/><line style="stroke:#000000;stroke-width:0.8999999999999999;" x1="17.4" x2="149.4" y1="17.7656" y2="17.7656"/><text fill="#000000" font-family="sans-serif" font-size="8.4" font-weight="bold" lengthAdjust="spacing" textLength="124.2" x="19.8" y="13.5199">androidx.recyclerview.widget</text></g><!--MD5=[0d852700fdad35b7061d461d6907a324]
cluster java.io--><g id="cluster_java.io"><path d="M180.3,3.6 L208.5,3.6 A2.25,2.25 0 0 1 210,5.1 L214.2,17.7656 L258.9,17.7656 A1.5,1.5 0 0 1 260.4,19.2656 L260.4,62.1 A1.5,1.5 0 0 1 258.9,63.6 L180.3,63.6 A1.5,1.5 0 0 1 178.8,62.1 L178.8,5.1 A1.5,1.5 0 0 1 180.3,3.6 " fill="none" style="stroke:#000000;stroke-width:0.8999999999999999;"/><line style="stroke:#000000;stroke-width:0.8999999999999999;" x1="178.8" x2="214.2" y1="17.7656" y2="17.7656"/><text fill="#000000" font-family="sans-serif" font-size="8.4" font-weight="bold" lengthAdjust="spacing" textLength="27.6" x="181.2" y="13.5199">java.io</text></g><!--MD5=[5e411c5bdca185cd05b261c417fe71fd]
class com.flag.cinema.Bookings--><g id="elem_com.flag.cinema.Bookings"><rect codeLine="1" fill="#F1F1F1" height="218.9813" id="com.flag.cinema.Bookings" rx="1.5" ry="1.5" style="stroke:#181818;stroke-width:0.3;" width="94.8" x="298.8" y="141.9"/><ellipse cx="326.25" cy="151.5" fill="#ADD1B2" rx="6.6" ry="6.6" style="stroke:#181818;stroke-width:0.6;"/><path d="M327.45,149.4 Q327.5719,149.1 327.7125,148.95 Q327.8531,148.8 328.0125,148.8 Q328.2938,148.8 328.4719,148.9688 Q328.65,149.1375 328.65,149.5313 L328.65,150.4688 Q328.65,150.8625 328.4813,151.0313 Q328.3125,151.2 328.05,151.2 Q327.8156,151.2 327.6656,151.0969 Q327.5156,150.9938 327.45,150.7219 Q327.4219,150.5344 327.3187,150.4313 Q327.1312,150.2344 326.7938,150.1219 Q326.4563,150 326.1188,150 Q325.6969,150 325.3406,150.1688 Q324.9938,150.3375 324.7219,150.7125 Q324.45,151.0875 324.45,151.6031 L324.45,152.1563 Q324.45,152.775 324.9563,153.1875 Q325.4625,153.6 326.3625,153.6 Q326.8969,153.6 327.2719,153.4781 Q327.4875,153.4125 327.7313,153.1969 Q327.8906,153.075 327.975,153.0375 Q328.0594,153 328.1625,153 Q328.3594,153 328.5,153.1594 Q328.65,153.3094 328.65,153.525 Q328.65,153.7313 328.4437,153.975 Q328.1438,154.3312 327.6656,154.5281 Q327.0375,154.8 326.2688,154.8 Q325.3688,154.8 324.6469,154.4438 Q324.0656,154.1625 323.6531,153.5531 Q323.25,152.9438 323.25,152.2219 L323.25,151.5656 Q323.25,150.8156 323.6063,150.1594 Q323.9719,149.5031 324.6,149.1563 Q325.2375,148.8 325.95,148.8 Q326.3812,148.8 326.7562,148.95 Q327.1312,149.1 327.45,149.4 Z " fill="#000000"/><text fill="#000000" font-family="sans-serif" font-size="8.4" lengthAdjust="spacing" textLength="34.8" x="338.55" y="154.9371">Bookings</text><line style="stroke:#181818;stroke-width:0.3;" x1="299.4" x2="393" y1="161.1" y2="161.1"/><rect fill="none" height="3.6" style="stroke:#C82930;stroke-width:0.6;" width="3.6" x="303.6" y="167.8828"/><text fill="#000000" font-family="sans-serif" font-size="8.4" lengthAdjust="spacing" textLength="18" x="310.8" y="172.2199">int id</text><rect fill="none" height="3.6" style="stroke:#C82930;stroke-width:0.6;" width="3.6" x="303.6" y="178.4484"/><text fill="#000000" font-family="sans-serif" font-size="8.4" lengthAdjust="spacing" textLength="37.8" x="310.8" y="182.7855">String title</text><rect fill="none" height="3.6" style="stroke:#C82930;stroke-width:0.6;" width="3.6" x="303.6" y="189.0141"/><text fill="#000000" font-family="sans-serif" font-size="8.4" lengthAdjust="spacing" textLength="41.4" x="310.8" y="193.3512">String date</text><rect fill="none" height="3.6" style="stroke:#C82930;stroke-width:0.6;" width="3.6" x="303.6" y="199.5797"/><text fill="#000000" font-family="sans-serif" font-size="8.4" lengthAdjust="spacing" textLength="45" x="310.8" y="203.9168">String seats</text><rect fill="none" height="3.6" style="stroke:#C82930;stroke-width:0.6;" width="3.6" x="303.6" y="210.1453"/><text fill="#000000" font-family="sans-serif" font-size="8.4" lengthAdjust="spacing" textLength="41.4" x="310.8" y="214.4824">String user</text><rect fill="none" height="3.6" style="stroke:#C82930;stroke-width:0.6;" width="3.6" x="303.6" y="220.7109"/><text fill="#000000" font-family="sans-serif" font-size="8.4" lengthAdjust="spacing" textLength="45" x="310.8" y="225.048">int movie_id</text><line style="stroke:#181818;stroke-width:0.3;" x1="299.4" x2="393" y1="229.2938" y2="229.2938"/><ellipse cx="305.4" cy="237.8766" fill="#84BE84" rx="1.8" ry="1.8" style="stroke:#038048;stroke-width:0.6;"/><text fill="#000000" font-family="sans-serif" font-size="8.4" lengthAdjust="spacing" textLength="63" x="310.8" y="240.4137">int getMovie_id()</text><ellipse cx="305.4" cy="248.4422" fill="#84BE84" rx="1.8" ry="1.8" style="stroke:#038048;stroke-width:0.6;"/><text fill="#000000" font-family="sans-serif" font-size="8.4" lengthAdjust="spacing" textLength="78" x="310.8" y="250.9793">void setMovie_id(int)</text><ellipse cx="305.4" cy="259.0078" fill="#84BE84" rx="1.8" ry="1.8" style="stroke:#038048;stroke-width:0.6;"/><text fill="#000000" font-family="sans-serif" font-size="8.4" lengthAdjust="spacing" textLength="60" x="310.8" y="261.5449">String getUser()</text><ellipse cx="305.4" cy="269.5734" fill="#84BE84" rx="1.8" ry="1.8" style="stroke:#038048;stroke-width:0.6;"/><text fill="#000000" font-family="sans-serif" font-size="8.4" lengthAdjust="spacing" textLength="75" x="310.8" y="272.1105">void setUser(String)</text><ellipse cx="305.4" cy="280.1391" fill="#84BE84" rx="1.8" ry="1.8" style="stroke:#038048;stroke-width:0.6;"/><text fill="#000000" font-family="sans-serif" font-size="8.4" lengthAdjust="spacing" textLength="36" x="310.8" y="282.6762">int getId()</text><ellipse cx="305.4" cy="290.7047" fill="#84BE84" rx="1.8" ry="1.8" style="stroke:#038048;stroke-width:0.6;"/><text fill="#000000" font-family="sans-serif" font-size="8.4" lengthAdjust="spacing" textLength="51" x="310.8" y="293.2418">void setId(int)</text><ellipse cx="305.4" cy="301.2703" fill="#84BE84" rx="1.8" ry="1.8" style="stroke:#038048;stroke-width:0.6;"/><text fill="#000000" font-family="sans-serif" font-size="8.4" lengthAdjust="spacing" textLength="58.8" x="310.8" y="303.8074">String getTitle()</text><ellipse cx="305.4" cy="311.8359" fill="#84BE84" rx="1.8" ry="1.8" style="stroke:#038048;stroke-width:0.6;"/><text fill="#000000" font-family="sans-serif" font-size="8.4" lengthAdjust="spacing" textLength="73.8" x="310.8" y="314.373">void setTitle(String)</text><ellipse cx="305.4" cy="322.4016" fill="#84BE84" rx="1.8" ry="1.8" style="stroke:#038048;stroke-width:0.6;"/><text fill="#000000" font-family="sans-serif" font-size="8.4" lengthAdjust="spacing" textLength="60.6" x="310.8" y="324.9387">String getDate()</text><ellipse cx="305.4" cy="332.9672" fill="#84BE84" rx="1.8" ry="1.8" style="stroke:#038048;stroke-width:0.6;"/><text fill="#000000" font-family="sans-serif" font-size="8.4" lengthAdjust="spacing" textLength="75.6" x="310.8" y="335.5043">void setDate(String)</text><ellipse cx="305.4" cy="343.5328" fill="#84BE84" rx="1.8" ry="1.8" style="stroke:#038048;stroke-width:0.6;"/><text fill="#000000" font-family="sans-serif" font-size="8.4" lengthAdjust="spacing" textLength="64.2" x="310.8" y="346.0699">String getSeats()</text><ellipse cx="305.4" cy="354.0984" fill="#84BE84" rx="1.8" ry="1.8" style="stroke:#038048;stroke-width:0.6;"/><text fill="#000000" font-family="sans-serif" font-size="8.4" lengthAdjust="spacing" textLength="79.2" x="310.8" y="356.6355">void setSeats(String)</text></g><!--MD5=[f3e881c3be55696e95fe88fac8ac38c7]
class com.flag.cinema.AutofitRecyclerView--><g id="elem_com.flag.cinema.AutofitRecyclerView"><rect codeLine="21" fill="#F1F1F1" height="71.0625" id="com.flag.cinema.AutofitRecyclerView" rx="1.5" ry="1.5" style="stroke:#181818;stroke-width:0.3;" width="127.2" x="13.2" y="216"/><ellipse cx="37.32" cy="225.6" fill="#ADD1B2" rx="6.6" ry="6.6" style="stroke:#181818;stroke-width:0.6;"/><path d="M38.52,223.5 Q38.6419,223.2 38.7825,223.05 Q38.9231,222.9 39.0825,222.9 Q39.3638,222.9 39.5419,223.0688 Q39.72,223.2375 39.72,223.6313 L39.72,224.5688 Q39.72,224.9625 39.5513,225.1313 Q39.3825,225.3 39.12,225.3 Q38.8856,225.3 38.7356,225.1969 Q38.5856,225.0938 38.52,224.8219 Q38.4919,224.6344 38.3888,224.5313 Q38.2013,224.3344 37.8638,224.2219 Q37.5263,224.1 37.1888,224.1 Q36.7669,224.1 36.4106,224.2687 Q36.0638,224.4375 35.7919,224.8125 Q35.52,225.1875 35.52,225.7031 L35.52,226.2563 Q35.52,226.875 36.0263,227.2875 Q36.5325,227.7 37.4325,227.7 Q37.9669,227.7 38.3419,227.5781 Q38.5575,227.5125 38.8013,227.2969 Q38.9606,227.175 39.045,227.1375 Q39.1294,227.1 39.2325,227.1 Q39.4294,227.1 39.57,227.2594 Q39.72,227.4094 39.72,227.625 Q39.72,227.8312 39.5138,228.075 Q39.2138,228.4313 38.7356,228.6281 Q38.1075,228.9 37.3388,228.9 Q36.4388,228.9 35.7169,228.5438 Q35.1356,228.2625 34.7231,227.6531 Q34.32,227.0438 34.32,226.3219 L34.32,225.6656 Q34.32,224.9156 34.6763,224.2594 Q35.0419,223.6031 35.67,223.2563 Q36.3075,222.9 37.02,222.9 Q37.4513,222.9 37.8263,223.05 Q38.2013,223.2 38.52,223.5 Z " fill="#000000"/><text fill="#000000" font-family="sans-serif" font-size="8.4" lengthAdjust="spacing" textLength="74.4" x="49.08" y="229.0371">AutofitRecyclerView</text><line style="stroke:#181818;stroke-width:0.3;" x1="13.8" x2="139.8" y1="235.2" y2="235.2"/><rect fill="none" height="3.6" style="stroke:#C82930;stroke-width:0.6;" width="3.6" x="18" y="241.9828"/><text fill="#000000" font-family="sans-serif" font-size="8.4" lengthAdjust="spacing" textLength="111.6" x="25.2" y="246.3199">GridLayoutManager manager</text><rect fill="none" height="3.6" style="stroke:#C82930;stroke-width:0.6;" width="3.6" x="18" y="252.5484"/><text fill="#000000" font-family="sans-serif" font-size="8.4" lengthAdjust="spacing" textLength="60" x="25.2" y="256.8855">int columnWidth</text><line style="stroke:#181818;stroke-width:0.3;" x1="13.8" x2="139.8" y1="261.1312" y2="261.1312"/><rect fill="#F24D5C" height="3.6" style="stroke:#C82930;stroke-width:0.6;" width="3.6" x="18" y="267.9141"/><text fill="#000000" font-family="sans-serif" font-size="8.4" lengthAdjust="spacing" textLength="110.4" x="25.2" y="272.2512">void init(Context,AttributeSet)</text><polygon fill="#FFFF44" points="19.8,277.2797,22.2,279.6797,19.8,282.0797,17.4,279.6797" style="stroke:#B38D22;stroke-width:0.6;"/><text fill="#000000" font-family="sans-serif" font-size="8.4" lengthAdjust="spacing" textLength="87" x="25.2" y="282.8168">void onMeasure(int,int)</text></g><!--MD5=[a1467663fe41ef8157e2f71fa256a7a9]
class com.flag.cinema.Movie--><g id="elem_com.flag.cinema.Movie"><rect codeLine="27" fill="#F1F1F1" height="303.5062" id="com.flag.cinema.Movie" rx="1.5" ry="1.5" style="stroke:#181818;stroke-width:0.3;" width="115.8" x="161.7" y="99.6"/><ellipse cx="205.95" cy="109.2" fill="#ADD1B2" rx="6.6" ry="6.6" style="stroke:#181818;stroke-width:0.6;"/><path d="M207.15,107.1 Q207.2719,106.8 207.4125,106.65 Q207.5531,106.5 207.7125,106.5 Q207.9938,106.5 208.1719,106.6688 Q208.35,106.8375 208.35,107.2313 L208.35,108.1688 Q208.35,108.5625 208.1813,108.7313 Q208.0125,108.9 207.75,108.9 Q207.5156,108.9 207.3656,108.7969 Q207.2156,108.6938 207.15,108.4219 Q207.1219,108.2344 207.0187,108.1313 Q206.8312,107.9344 206.4938,107.8219 Q206.1563,107.7 205.8188,107.7 Q205.3969,107.7 205.0406,107.8687 Q204.6938,108.0375 204.4219,108.4125 Q204.15,108.7875 204.15,109.3031 L204.15,109.8563 Q204.15,110.475 204.6563,110.8875 Q205.1625,111.3 206.0625,111.3 Q206.5969,111.3 206.9719,111.1781 Q207.1875,111.1125 207.4313,110.8969 Q207.5906,110.775 207.675,110.7375 Q207.7594,110.7 207.8625,110.7 Q208.0594,110.7 208.2,110.8594 Q208.35,111.0094 208.35,111.225 Q208.35,111.4312 208.1437,111.675 Q207.8438,112.0313 207.3656,112.2281 Q206.7375,112.5 205.9688,112.5 Q205.0688,112.5 204.3469,112.1438 Q203.7656,111.8625 203.3531,111.2531 Q202.95,110.6438 202.95,109.9219 L202.95,109.2656 Q202.95,108.5156 203.3063,107.8594 Q203.6719,107.2031 204.3,106.8563 Q204.9375,106.5 205.65,106.5 Q206.0812,106.5 206.4562,106.65 Q206.8312,106.8 207.15,107.1 Z " fill="#000000"/><text fill="#000000" font-family="sans-serif" font-size="8.4" lengthAdjust="spacing" textLength="22.2" x="218.25" y="112.6371">Movie</text><line style="stroke:#181818;stroke-width:0.3;" x1="162.3" x2="276.9" y1="118.8" y2="118.8"/><rect fill="none" height="3.6" style="stroke:#C82930;stroke-width:0.6;" width="3.6" x="166.5" y="125.5828"/><text fill="#000000" font-family="sans-serif" font-size="8.4" lengthAdjust="spacing" textLength="45.6" x="173.7" y="129.9199">String name</text><polygon fill="none" points="168.3,135.5484,165.9,139.1484,170.7,139.1484" style="stroke:#1963A0;stroke-width:0.6;"/><text fill="#000000" font-family="sans-serif" font-size="8.4" lengthAdjust="spacing" textLength="34.8" x="173.7" y="140.4855">int imgUrl</text><line style="stroke:#181818;stroke-width:0.3;" x1="162.3" x2="276.9" y1="144.7313" y2="144.7313"/><ellipse cx="168.3" cy="153.3141" fill="#84BE84" rx="1.8" ry="1.8" style="stroke:#038048;stroke-width:0.6;"/><text fill="#000000" font-family="sans-serif" font-size="8.4" lengthAdjust="spacing" textLength="85.2" x="173.7" y="155.8512">String getDescription()</text><ellipse cx="168.3" cy="163.8797" fill="#84BE84" rx="1.8" ry="1.8" style="stroke:#038048;stroke-width:0.6;"/><text fill="#000000" font-family="sans-serif" font-size="8.4" lengthAdjust="spacing" textLength="100.2" x="173.7" y="166.4168">void setDescription(String)</text><ellipse cx="168.3" cy="174.4453" fill="#84BE84" rx="1.8" ry="1.8" style="stroke:#038048;stroke-width:0.6;"/><text fill="#000000" font-family="sans-serif" font-size="8.4" lengthAdjust="spacing" textLength="48.6" x="173.7" y="176.9824">int getPrice()</text><ellipse cx="168.3" cy="185.0109" fill="#84BE84" rx="1.8" ry="1.8" style="stroke:#038048;stroke-width:0.6;"/><text fill="#000000" font-family="sans-serif" font-size="8.4" lengthAdjust="spacing" textLength="63.6" x="173.7" y="187.548">void setPrice(int)</text><ellipse cx="168.3" cy="195.5766" fill="#84BE84" rx="1.8" ry="1.8" style="stroke:#038048;stroke-width:0.6;"/><text fill="#000000" font-family="sans-serif" font-size="8.4" lengthAdjust="spacing" textLength="36" x="173.7" y="198.1137">int getId()</text><ellipse cx="168.3" cy="206.1422" fill="#84BE84" rx="1.8" ry="1.8" style="stroke:#038048;stroke-width:0.6;"/><text fill="#000000" font-family="sans-serif" font-size="8.4" lengthAdjust="spacing" textLength="51" x="173.7" y="208.6793">void setId(int)</text><ellipse cx="168.3" cy="216.7078" fill="#84BE84" rx="1.8" ry="1.8" style="stroke:#038048;stroke-width:0.6;"/><text fill="#000000" font-family="sans-serif" font-size="8.4" lengthAdjust="spacing" textLength="81" x="173.7" y="219.2449">String getDate_time()</text><ellipse cx="168.3" cy="227.2734" fill="#84BE84" rx="1.8" ry="1.8" style="stroke:#038048;stroke-width:0.6;"/><text fill="#000000" font-family="sans-serif" font-size="8.4" lengthAdjust="spacing" textLength="96" x="173.7" y="229.8105">void setDate_time(String)</text><ellipse cx="168.3" cy="237.8391" fill="#84BE84" rx="1.8" ry="1.8" style="stroke:#038048;stroke-width:0.6;"/><text fill="#000000" font-family="sans-serif" font-size="8.4" lengthAdjust="spacing" textLength="79.2" x="173.7" y="240.3762">void setName(String)</text><ellipse cx="168.3" cy="248.4047" fill="#84BE84" rx="1.8" ry="1.8" style="stroke:#038048;stroke-width:0.6;"/><text fill="#000000" font-family="sans-serif" font-size="8.4" lengthAdjust="spacing" textLength="76.8" x="173.7" y="250.9418">void setType(String)</text><ellipse cx="168.3" cy="258.9703" fill="#84BE84" rx="1.8" ry="1.8" style="stroke:#038048;stroke-width:0.6;"/><text fill="#000000" font-family="sans-serif" font-size="8.4" lengthAdjust="spacing" textLength="84" x="173.7" y="261.5074">void setLength(String)</text><ellipse cx="168.3" cy="269.5359" fill="#84BE84" rx="1.8" ry="1.8" style="stroke:#038048;stroke-width:0.6;"/><text fill="#000000" font-family="sans-serif" font-size="8.4" lengthAdjust="spacing" textLength="92.4" x="173.7" y="272.073">void setCategory(String)</text><ellipse cx="168.3" cy="280.1016" fill="#84BE84" rx="1.8" ry="1.8" style="stroke:#038048;stroke-width:0.6;"/><text fill="#000000" font-family="sans-serif" font-size="8.4" lengthAdjust="spacing" textLength="82.2" x="173.7" y="282.6387">void setRating(String)</text><ellipse cx="168.3" cy="290.6672" fill="#84BE84" rx="1.8" ry="1.8" style="stroke:#038048;stroke-width:0.6;"/><text fill="#000000" font-family="sans-serif" font-size="8.4" lengthAdjust="spacing" textLength="74.4" x="173.7" y="293.2043">void setTrile(String)</text><ellipse cx="168.3" cy="301.2328" fill="#84BE84" rx="1.8" ry="1.8" style="stroke:#038048;stroke-width:0.6;"/><text fill="#000000" font-family="sans-serif" font-size="8.4" lengthAdjust="spacing" textLength="93" x="173.7" y="303.7699">void setRelaDate(String)</text><ellipse cx="168.3" cy="311.7984" fill="#84BE84" rx="1.8" ry="1.8" style="stroke:#038048;stroke-width:0.6;"/><text fill="#000000" font-family="sans-serif" font-size="8.4" lengthAdjust="spacing" textLength="67.2" x="173.7" y="314.3355">String getRating()</text><ellipse cx="168.3" cy="322.3641" fill="#84BE84" rx="1.8" ry="1.8" style="stroke:#038048;stroke-width:0.6;"/><text fill="#000000" font-family="sans-serif" font-size="8.4" lengthAdjust="spacing" textLength="52.8" x="173.7" y="324.9012">int getImgUrl()</text><ellipse cx="168.3" cy="332.9297" fill="#84BE84" rx="1.8" ry="1.8" style="stroke:#038048;stroke-width:0.6;"/><text fill="#000000" font-family="sans-serif" font-size="8.4" lengthAdjust="spacing" textLength="67.8" x="173.7" y="335.4668">void setImgUrl(int)</text><ellipse cx="168.3" cy="343.4953" fill="#84BE84" rx="1.8" ry="1.8" style="stroke:#038048;stroke-width:0.6;"/><text fill="#000000" font-family="sans-serif" font-size="8.4" lengthAdjust="spacing" textLength="69" x="173.7" y="346.0324">String getLength()</text><ellipse cx="168.3" cy="354.0609" fill="#84BE84" rx="1.8" ry="1.8" style="stroke:#038048;stroke-width:0.6;"/><text fill="#000000" font-family="sans-serif" font-size="8.4" lengthAdjust="spacing" textLength="77.4" x="173.7" y="356.598">String getCategory()</text><ellipse cx="168.3" cy="364.6266" fill="#84BE84" rx="1.8" ry="1.8" style="stroke:#038048;stroke-width:0.6;"/><text fill="#000000" font-family="sans-serif" font-size="8.4" lengthAdjust="spacing" textLength="64.2" x="173.7" y="367.1637">String getName()</text><ellipse cx="168.3" cy="375.1922" fill="#84BE84" rx="1.8" ry="1.8" style="stroke:#038048;stroke-width:0.6;"/><text fill="#000000" font-family="sans-serif" font-size="8.4" lengthAdjust="spacing" textLength="61.8" x="173.7" y="377.7293">String getType()</text><ellipse cx="168.3" cy="385.7578" fill="#84BE84" rx="1.8" ry="1.8" style="stroke:#038048;stroke-width:0.6;"/><text fill="#000000" font-family="sans-serif" font-size="8.4" lengthAdjust="spacing" textLength="59.4" x="173.7" y="388.2949">String getTrile()</text><ellipse cx="168.3" cy="396.3234" fill="#84BE84" rx="1.8" ry="1.8" style="stroke:#038048;stroke-width:0.6;"/><text fill="#000000" font-family="sans-serif" font-size="8.4" lengthAdjust="spacing" textLength="78" x="173.7" y="398.8605">String getRelaDate()</text></g><!--MD5=[4b02209802d2b534b42def64a138d19d]
class androidx.recyclerview.widget.RecyclerView--><g id="elem_androidx.recyclerview.widget.RecyclerView"><rect fill="#F1F1F1" height="28.8" id="androidx.recyclerview.widget.RecyclerView" rx="1.5" ry="1.5" style="stroke:#181818;stroke-width:0.3;" width="69.6" x="42" y="25.2"/><ellipse cx="51" cy="34.8" fill="#ADD1B2" rx="6.6" ry="6.6" style="stroke:#181818;stroke-width:0.6;"/><path d="M52.2,32.7 Q52.3219,32.4 52.4625,32.25 Q52.6031,32.1 52.7625,32.1 Q53.0437,32.1 53.2219,32.2688 Q53.4,32.4375 53.4,32.8313 L53.4,33.7688 Q53.4,34.1625 53.2312,34.3313 Q53.0625,34.5 52.8,34.5 Q52.5656,34.5 52.4156,34.3969 Q52.2656,34.2937 52.2,34.0219 Q52.1719,33.8344 52.0688,33.7312 Q51.8813,33.5344 51.5437,33.4219 Q51.2063,33.3 50.8688,33.3 Q50.4469,33.3 50.0906,33.4688 Q49.7438,33.6375 49.4719,34.0125 Q49.2,34.3875 49.2,34.9031 L49.2,35.4563 Q49.2,36.075 49.7063,36.4875 Q50.2125,36.9 51.1125,36.9 Q51.6469,36.9 52.0219,36.7781 Q52.2375,36.7125 52.4812,36.4969 Q52.6406,36.375 52.725,36.3375 Q52.8094,36.3 52.9125,36.3 Q53.1094,36.3 53.25,36.4594 Q53.4,36.6094 53.4,36.825 Q53.4,37.0313 53.1938,37.275 Q52.8938,37.6313 52.4156,37.8281 Q51.7875,38.1 51.0188,38.1 Q50.1188,38.1 49.3969,37.7438 Q48.8156,37.4625 48.4031,36.8531 Q48,36.2438 48,35.5219 L48,34.8656 Q48,34.1156 48.3562,33.4594 Q48.7219,32.8031 49.35,32.4563 Q49.9875,32.1 50.7,32.1 Q51.1313,32.1 51.5063,32.25 Q51.8813,32.4 52.2,32.7 Z " fill="#000000"/><text fill="#000000" font-family="sans-serif" font-size="8.4" lengthAdjust="spacing" textLength="50.4" x="59.4" y="38.2371">RecyclerView</text><line style="stroke:#181818;stroke-width:0.3;" x1="42.6" x2="111" y1="44.4" y2="44.4"/><line style="stroke:#181818;stroke-width:0.3;" x1="42.6" x2="111" y1="49.2" y2="49.2"/></g><!--MD5=[5a5af9b0547913863cbe0ddf55a9ab5e]
class java.io.Serializable--><g id="elem_java.io.Serializable"><rect fill="#F1F1F1" height="28.8" id="java.io.Serializable" rx="1.5" ry="1.5" style="stroke:#181818;stroke-width:0.3;" width="62.4" x="188.4" y="25.2"/><ellipse cx="197.4" cy="34.8" fill="#ADD1B2" rx="6.6" ry="6.6" style="stroke:#181818;stroke-width:0.6;"/><path d="M198.6,32.7 Q198.7219,32.4 198.8625,32.25 Q199.0031,32.1 199.1625,32.1 Q199.4438,32.1 199.6219,32.2688 Q199.8,32.4375 199.8,32.8313 L199.8,33.7688 Q199.8,34.1625 199.6313,34.3313 Q199.4625,34.5 199.2,34.5 Q198.9656,34.5 198.8156,34.3969 Q198.6656,34.2937 198.6,34.0219 Q198.5719,33.8344 198.4688,33.7312 Q198.2813,33.5344 197.9438,33.4219 Q197.6063,33.3 197.2687,33.3 Q196.8469,33.3 196.4906,33.4688 Q196.1437,33.6375 195.8719,34.0125 Q195.6,34.3875 195.6,34.9031 L195.6,35.4563 Q195.6,36.075 196.1063,36.4875 Q196.6125,36.9 197.5125,36.9 Q198.0469,36.9 198.4219,36.7781 Q198.6375,36.7125 198.8813,36.4969 Q199.0406,36.375 199.125,36.3375 Q199.2094,36.3 199.3125,36.3 Q199.5094,36.3 199.65,36.4594 Q199.8,36.6094 199.8,36.825 Q199.8,37.0313 199.5938,37.275 Q199.2938,37.6313 198.8156,37.8281 Q198.1875,38.1 197.4188,38.1 Q196.5187,38.1 195.7969,37.7438 Q195.2156,37.4625 194.8031,36.8531 Q194.4,36.2438 194.4,35.5219 L194.4,34.8656 Q194.4,34.1156 194.7563,33.4594 Q195.1219,32.8031 195.75,32.4563 Q196.3875,32.1 197.1,32.1 Q197.5313,32.1 197.9063,32.25 Q198.2813,32.4 198.6,32.7 Z " fill="#000000"/><text fill="#000000" font-family="sans-serif" font-size="8.4" lengthAdjust="spacing" textLength="43.2" x="205.8" y="38.2371">Serializable</text><line style="stroke:#181818;stroke-width:0.3;" x1="189" x2="250.2" y1="44.4" y2="44.4"/><line style="stroke:#181818;stroke-width:0.3;" x1="189" x2="250.2" y1="49.2" y2="49.2"/></g><!--MD5=[ad0af59eb680908979001d8c399b04e4]
reverse link androidx.recyclerview.widget.RecyclerView to com.flag.cinema.AutofitRecyclerView--><g id="link_androidx.recyclerview.widget.RecyclerView_com.flag.cinema.AutofitRecyclerView"><path codeLine="57" d="M76.8,66.096 C76.8,103.728 76.8,173.622 76.8,215.802 " fill="none" id="androidx.recyclerview.widget.RecyclerView-backto-com.flag.cinema.AutofitRecyclerView" style="stroke:#181818;stroke-width:0.6;"/><polygon fill="none" points="72.6,66.018,76.8,54.018,81,66.018,72.6,66.018" style="stroke:#181818;stroke-width:0.6;"/></g><!--MD5=[139376b6c3cab690fcf4cc34198fc958]
reverse link java.io.Serializable to com.flag.cinema.Movie--><g id="link_java.io.Serializable_com.flag.cinema.Movie"><path codeLine="58" d="M219.6,66.084 C219.6,75.51 219.6,86.964 219.6,99.504 " fill="none" id="java.io.Serializable-backto-com.flag.cinema.Movie" style="stroke:#181818;stroke-width:0.6;stroke-dasharray:7.0,7.0;"/><polygon fill="none" points="215.4,66.018,219.6,54.018,223.8,66.018,215.4,66.018" style="stroke:#181818;stroke-width:0.6;"/></g><!--MD5=[28c2b97234e55bfc92ddc32d2e3abf01]
@startuml
class com.flag.cinema.Bookings {
- int id
- String title
- String date
- String seats
- String user
- int movie_id
+ int getMovie_id()
+ void setMovie_id(int)
+ String getUser()
+ void setUser(String)
+ int getId()
+ void setId(int)
+ String getTitle()
+ void setTitle(String)
+ String getDate()
+ void setDate(String)
+ String getSeats()
+ void setSeats(String)
}
class com.flag.cinema.AutofitRecyclerView {
- GridLayoutManager manager
- int columnWidth
- void init(Context,AttributeSet)
# void onMeasure(int,int)
}
class com.flag.cinema.Movie {
- String name
~ int imgUrl
+ String getDescription()
+ void setDescription(String)
+ int getPrice()
+ void setPrice(int)
+ int getId()
+ void setId(int)
+ String getDate_time()
+ void setDate_time(String)
+ void setName(String)
+ void setType(String)
+ void setLength(String)
+ void setCategory(String)
+ void setRating(String)
+ void setTrile(String)
+ void setRelaDate(String)
+ String getRating()
+ int getImgUrl()
+ void setImgUrl(int)
+ String getLength()
+ String getCategory()
+ String getName()
+ String getType()
+ String getTrile()
+ String getRelaDate()
}


androidx.recyclerview.widget.RecyclerView <|- - com.flag.cinema.AutofitRecyclerView
java.io.Serializable <|.. com.flag.cinema.Movie
@enduml

PlantUML version 1.2022.12(Sun Oct 23 21:12:26 MSK 2022)
(GPL source distribution)
Java Runtime: OpenJDK Runtime Environment
JVM: OpenJDK 64-Bit Server VM
Default Encoding: Cp1251
Language: ru
Country: RU
--></g></svg>