<?xml version="1.0" encoding="UTF-8" standalone="no"?><svg xmlns="http://www.w3.org/2000/svg" xmlns:xlink="http://www.w3.org/1999/xlink" contentStyleType="text/css" height="818px" preserveAspectRatio="none" style="width:711px;height:818px;background:#FFFFFF;" version="1.1" viewBox="0 0 711 818" width="711px" zoomAndPan="magnify"><defs/><g><!--MD5=[8250f42f60e762692c5f9f72b6cd7e4d]
cluster com.flag.cinema--><g id="cluster_com.flag.cinema"><path d="M8.5,130 L122.5,130 A3.75,3.75 0 0 1 125,132.5 L132,153.6094 L701.5,153.6094 A2.5,2.5 0 0 1 704,156.1094 L704,808.5 A2.5,2.5 0 0 1 701.5,811 L8.5,811 A2.5,2.5 0 0 1 6,808.5 L6,132.5 A2.5,2.5 0 0 1 8.5,130 " fill="none" style="stroke:#000000;stroke-width:1.5;"/><line style="stroke:#000000;stroke-width:1.5;" x1="6" x2="132" y1="153.6094" y2="153.6094"/><text fill="#000000" font-family="sans-serif" font-size="14" font-weight="bold" lengthAdjust="spacing" textLength="113" x="10" y="146.5332">com.flag.cinema</text></g><!--MD5=[5e947de84f2d165e0f2b11301a50a902]
cluster android.database.sqlite--><g id="cluster_android.database.sqlite"><path d="M265.5,6 L431.5,6 A3.75,3.75 0 0 1 434,8.5 L441,29.6094 L444.5,29.6094 A2.5,2.5 0 0 1 447,32.1094 L447,103.5 A2.5,2.5 0 0 1 444.5,106 L265.5,106 A2.5,2.5 0 0 1 263,103.5 L263,8.5 A2.5,2.5 0 0 1 265.5,6 " fill="none" style="stroke:#000000;stroke-width:1.5;"/><line style="stroke:#000000;stroke-width:1.5;" x1="263" x2="441" y1="29.6094" y2="29.6094"/><text fill="#000000" font-family="sans-serif" font-size="14" font-weight="bold" lengthAdjust="spacing" textLength="165" x="267" y="22.5332">android.database.sqlite</text></g><!--MD5=[0471575073b134c00b5cb381bb8749d8]
class com.flag.cinema.SQLiteHelper--><g id="elem_com.flag.cinema.SQLiteHelper"><rect codeLine="1" fill="#F1F1F1" height="629.1094" id="com.flag.cinema.SQLiteHelper" rx="2.5" ry="2.5" style="stroke:#181818;stroke-width:0.5;" width="666" x="22" y="166"/><ellipse cx="308.75" cy="182" fill="#ADD1B2" rx="11" ry="11" style="stroke:#181818;stroke-width:1.0;"/><path d="M310.75,178.5 Q310.9531,178 311.1875,177.75 Q311.4219,177.5 311.6875,177.5 Q312.1563,177.5 312.4531,177.7813 Q312.75,178.0625 312.75,178.7188 L312.75,180.2813 Q312.75,180.9375 312.4688,181.2188 Q312.1875,181.5 311.75,181.5 Q311.3594,181.5 311.1094,181.3281 Q310.8594,181.1563 310.75,180.7031 Q310.7031,180.3906 310.5313,180.2188 Q310.2188,179.8906 309.6563,179.7031 Q309.0938,179.5 308.5313,179.5 Q307.8281,179.5 307.2344,179.7813 Q306.6563,180.0625 306.2031,180.6875 Q305.75,181.3125 305.75,182.1719 L305.75,183.0938 Q305.75,184.125 306.5938,184.8125 Q307.4375,185.5 308.9375,185.5 Q309.8281,185.5 310.4531,185.2969 Q310.8125,185.1875 311.2188,184.8281 Q311.4844,184.625 311.625,184.5625 Q311.7656,184.5 311.9375,184.5 Q312.2656,184.5 312.5,184.7656 Q312.75,185.0156 312.75,185.375 Q312.75,185.7188 312.4063,186.125 Q311.9063,186.7188 311.1094,187.0469 Q310.0625,187.5 308.7813,187.5 Q307.2813,187.5 306.0781,186.9063 Q305.1094,186.4375 304.4219,185.4219 Q303.75,184.4063 303.75,183.2031 L303.75,182.1094 Q303.75,180.8594 304.3438,179.7656 Q304.9531,178.6719 306,178.0938 Q307.0625,177.5 308.25,177.5 Q308.9688,177.5 309.5938,177.75 Q310.2188,178 310.75,178.5 Z " fill="#000000"/><text fill="#000000" font-family="sans-serif" font-size="14" lengthAdjust="spacing" textLength="84" x="329.25" y="187.7285">SQLiteHelper</text><line style="stroke:#181818;stroke-width:0.5;" x1="23" x2="687" y1="198" y2="198"/><polygon fill="none" points="33,208.3047,29,214.3047,37,214.3047" style="stroke:#1963A0;stroke-width:1.0;"/><text fill="#000000" font-family="sans-serif" font-size="14" lengthAdjust="spacing" text-decoration="underline" textLength="160" x="42" y="216.5332">String DATABASE_NAME</text><ellipse cx="33" cy="229.9141" fill="none" rx="3" ry="3" style="stroke:#038048;stroke-width:1.0;"/><text fill="#000000" font-family="sans-serif" font-size="14" lengthAdjust="spacing" text-decoration="underline" textLength="131" x="42" y="234.1426">String TABLE_NAME</text><ellipse cx="33" cy="247.5234" fill="none" rx="3" ry="3" style="stroke:#038048;stroke-width:1.0;"/><text fill="#000000" font-family="sans-serif" font-size="14" lengthAdjust="spacing" text-decoration="underline" textLength="154" x="42" y="251.752">String Table_Column_ID</text><ellipse cx="33" cy="265.1328" fill="none" rx="3" ry="3" style="stroke:#038048;stroke-width:1.0;"/><text fill="#000000" font-family="sans-serif" font-size="14" lengthAdjust="spacing" text-decoration="underline" textLength="193" x="42" y="269.3613">String Table_Column_1_Name</text><ellipse cx="33" cy="282.7422" fill="none" rx="3" ry="3" style="stroke:#038048;stroke-width:1.0;"/><text fill="#000000" font-family="sans-serif" font-size="14" lengthAdjust="spacing" text-decoration="underline" textLength="191" x="42" y="286.9707">String Table_Column_2_Email</text><ellipse cx="33" cy="300.3516" fill="none" rx="3" ry="3" style="stroke:#038048;stroke-width:1.0;"/><text fill="#000000" font-family="sans-serif" font-size="14" lengthAdjust="spacing" text-decoration="underline" textLength="198" x="42" y="304.5801">String Table_Column_3_Mobile</text><ellipse cx="33" cy="317.9609" fill="none" rx="3" ry="3" style="stroke:#038048;stroke-width:1.0;"/><text fill="#000000" font-family="sans-serif" font-size="14" lengthAdjust="spacing" text-decoration="underline" textLength="218" x="42" y="322.1895">String Table_Column_4_Password</text><ellipse cx="33" cy="335.5703" fill="none" rx="3" ry="3" style="stroke:#038048;stroke-width:1.0;"/><text fill="#000000" font-family="sans-serif" font-size="14" lengthAdjust="spacing" text-decoration="underline" textLength="184" x="42" y="339.7988">String SEATS_TABLE_NAME</text><ellipse cx="33" cy="353.1797" fill="none" rx="3" ry="3" style="stroke:#038048;stroke-width:1.0;"/><text fill="#000000" font-family="sans-serif" font-size="14" lengthAdjust="spacing" text-decoration="underline" textLength="198" x="42" y="357.4082">String Seats_Table_Column_ID</text><ellipse cx="33" cy="370.7891" fill="none" rx="3" ry="3" style="stroke:#038048;stroke-width:1.0;"/><text fill="#000000" font-family="sans-serif" font-size="14" lengthAdjust="spacing" text-decoration="underline" textLength="200" x="42" y="375.0176">String Seats_Table_Title_Name</text><ellipse cx="33" cy="388.3984" fill="none" rx="3" ry="3" style="stroke:#038048;stroke-width:1.0;"/><text fill="#000000" font-family="sans-serif" font-size="14" lengthAdjust="spacing" text-decoration="underline" textLength="218" x="42" y="392.627">String Seats_Table_Screen_Name</text><ellipse cx="33" cy="406.0078" fill="none" rx="3" ry="3" style="stroke:#038048;stroke-width:1.0;"/><text fill="#000000" font-family="sans-serif" font-size="14" lengthAdjust="spacing" text-decoration="underline" textLength="207" x="42" y="410.2363">String Seats_Table_Show_Name</text><ellipse cx="33" cy="423.6172" fill="none" rx="3" ry="3" style="stroke:#038048;stroke-width:1.0;"/><text fill="#000000" font-family="sans-serif" font-size="14" lengthAdjust="spacing" text-decoration="underline" textLength="201" x="42" y="427.8457">String Seats_Table_Show_Date</text><ellipse cx="33" cy="441.2266" fill="none" rx="3" ry="3" style="stroke:#038048;stroke-width:1.0;"/><text fill="#000000" font-family="sans-serif" font-size="14" lengthAdjust="spacing" text-decoration="underline" textLength="199" x="42" y="445.4551">String Seats_Table_Seat_Index</text><ellipse cx="33" cy="458.8359" fill="none" rx="3" ry="3" style="stroke:#038048;stroke-width:1.0;"/><text fill="#000000" font-family="sans-serif" font-size="14" lengthAdjust="spacing" text-decoration="underline" textLength="202" x="42" y="463.0645">String Seats_Table_Seat_Name</text><ellipse cx="33" cy="476.4453" fill="none" rx="3" ry="3" style="stroke:#038048;stroke-width:1.0;"/><text fill="#000000" font-family="sans-serif" font-size="14" lengthAdjust="spacing" text-decoration="underline" textLength="169" x="42" y="480.6738">String Seats_Booked_user</text><ellipse cx="33" cy="494.0547" fill="none" rx="3" ry="3" style="stroke:#038048;stroke-width:1.0;"/><text fill="#000000" font-family="sans-serif" font-size="14" lengthAdjust="spacing" text-decoration="underline" textLength="143" x="42" y="498.2832">String Seats_Movie_ID</text><ellipse cx="33" cy="511.6641" fill="none" rx="3" ry="3" style="stroke:#038048;stroke-width:1.0;"/><text fill="#000000" font-family="sans-serif" font-size="14" lengthAdjust="spacing" text-decoration="underline" textLength="182" x="42" y="515.8926">String MOVIE_TABLE_NAME</text><ellipse cx="33" cy="529.2734" fill="none" rx="3" ry="3" style="stroke:#038048;stroke-width:1.0;"/><text fill="#000000" font-family="sans-serif" font-size="14" lengthAdjust="spacing" text-decoration="underline" textLength="99" x="42" y="533.502">String Movie_ID</text><ellipse cx="33" cy="546.8828" fill="none" rx="3" ry="3" style="stroke:#038048;stroke-width:1.0;"/><text fill="#000000" font-family="sans-serif" font-size="14" lengthAdjust="spacing" text-decoration="underline" textLength="124" x="42" y="551.1113">String Movie_NAME</text><ellipse cx="33" cy="564.4922" fill="none" rx="3" ry="3" style="stroke:#038048;stroke-width:1.0;"/><text fill="#000000" font-family="sans-serif" font-size="14" lengthAdjust="spacing" text-decoration="underline" textLength="132" x="42" y="568.7207">String Movie_img_url</text><ellipse cx="33" cy="582.1016" fill="none" rx="3" ry="3" style="stroke:#038048;stroke-width:1.0;"/><text fill="#000000" font-family="sans-serif" font-size="14" lengthAdjust="spacing" text-decoration="underline" textLength="118" x="42" y="586.3301">String Movie_Type</text><ellipse cx="33" cy="599.7109" fill="none" rx="3" ry="3" style="stroke:#038048;stroke-width:1.0;"/><text fill="#000000" font-family="sans-serif" font-size="14" lengthAdjust="spacing" text-decoration="underline" textLength="122" x="42" y="603.9395">String Movie_trailer</text><ellipse cx="33" cy="617.3203" fill="none" rx="3" ry="3" style="stroke:#038048;stroke-width:1.0;"/><text fill="#000000" font-family="sans-serif" font-size="14" lengthAdjust="spacing" text-decoration="underline" textLength="148" x="42" y="621.5488">String Movie_date_time</text><ellipse cx="33" cy="634.9297" fill="none" rx="3" ry="3" style="stroke:#038048;stroke-width:1.0;"/><text fill="#000000" font-family="sans-serif" font-size="14" lengthAdjust="spacing" text-decoration="underline" textLength="163" x="42" y="639.1582">String Movie_releaseDate</text><ellipse cx="33" cy="652.5391" fill="none" rx="3" ry="3" style="stroke:#038048;stroke-width:1.0;"/><text fill="#000000" font-family="sans-serif" font-size="14" lengthAdjust="spacing" text-decoration="underline" textLength="130" x="42" y="656.7676">String Movie_Length</text><ellipse cx="33" cy="670.1484" fill="none" rx="3" ry="3" style="stroke:#038048;stroke-width:1.0;"/><text fill="#000000" font-family="sans-serif" font-size="14" lengthAdjust="spacing" text-decoration="underline" textLength="141" x="42" y="674.377">String Movie_category</text><ellipse cx="33" cy="687.7578" fill="none" rx="3" ry="3" style="stroke:#038048;stroke-width:1.0;"/><text fill="#000000" font-family="sans-serif" font-size="14" lengthAdjust="spacing" text-decoration="underline" textLength="127" x="42" y="691.9863">String Movie_Rating</text><ellipse cx="33" cy="705.3672" fill="none" rx="3" ry="3" style="stroke:#038048;stroke-width:1.0;"/><text fill="#000000" font-family="sans-serif" font-size="14" lengthAdjust="spacing" text-decoration="underline" textLength="157" x="42" y="709.5957">String Movie_Description</text><ellipse cx="33" cy="722.9766" fill="none" rx="3" ry="3" style="stroke:#038048;stroke-width:1.0;"/><text fill="#000000" font-family="sans-serif" font-size="14" lengthAdjust="spacing" text-decoration="underline" textLength="118" x="42" y="727.2051">String Movie_Price</text><line style="stroke:#181818;stroke-width:0.5;" x1="23" x2="687" y1="734.2813" y2="734.2813"/><ellipse cx="33" cy="748.5859" fill="#84BE84" rx="3" ry="3" style="stroke:#038048;stroke-width:1.0;"/><text fill="#000000" font-family="sans-serif" font-size="14" lengthAdjust="spacing" textLength="203" x="42" y="752.8145">void onCreate(SQLiteDatabase)</text><ellipse cx="33" cy="766.1953" fill="#84BE84" rx="3" ry="3" style="stroke:#038048;stroke-width:1.0;"/><text fill="#000000" font-family="sans-serif" font-size="14" lengthAdjust="spacing" textLength="252" x="42" y="770.4238">void onUpgrade(SQLiteDatabase,int,int)</text><ellipse cx="33" cy="783.8047" fill="#84BE84" rx="3" ry="3" style="stroke:#038048;stroke-width:1.0;"/><text fill="#000000" font-family="sans-serif" font-size="14" lengthAdjust="spacing" textLength="640" x="42" y="788.0332">void addRecord(int,String,int,String,String,String,String,String,String,String,String,int,SQLiteDatabase)</text></g><!--MD5=[571f80f5957c67ac1f0e49d043ddd629]
class android.database.sqlite.SQLiteOpenHelper--><g id="elem_android.database.sqlite.SQLiteOpenHelper"><rect fill="#F1F1F1" height="48" id="android.database.sqlite.SQLiteOpenHelper" rx="2.5" ry="2.5" style="stroke:#181818;stroke-width:0.5;" width="151" x="279.5" y="42"/><ellipse cx="294.5" cy="58" fill="#ADD1B2" rx="11" ry="11" style="stroke:#181818;stroke-width:1.0;"/><path d="M296.5,54.5 Q296.7031,54 296.9375,53.75 Q297.1719,53.5 297.4375,53.5 Q297.9063,53.5 298.2031,53.7813 Q298.5,54.0625 298.5,54.7188 L298.5,56.2813 Q298.5,56.9375 298.2188,57.2188 Q297.9375,57.5 297.5,57.5 Q297.1094,57.5 296.8594,57.3281 Q296.6094,57.1563 296.5,56.7031 Q296.4531,56.3906 296.2813,56.2188 Q295.9688,55.8906 295.4063,55.7031 Q294.8438,55.5 294.2813,55.5 Q293.5781,55.5 292.9844,55.7813 Q292.4063,56.0625 291.9531,56.6875 Q291.5,57.3125 291.5,58.1719 L291.5,59.0938 Q291.5,60.125 292.3438,60.8125 Q293.1875,61.5 294.6875,61.5 Q295.5781,61.5 296.2031,61.2969 Q296.5625,61.1875 296.9688,60.8281 Q297.2344,60.625 297.375,60.5625 Q297.5156,60.5 297.6875,60.5 Q298.0156,60.5 298.25,60.7656 Q298.5,61.0156 298.5,61.375 Q298.5,61.7188 298.1563,62.125 Q297.6563,62.7188 296.8594,63.0469 Q295.8125,63.5 294.5313,63.5 Q293.0313,63.5 291.8281,62.9063 Q290.8594,62.4375 290.1719,61.4219 Q289.5,60.4063 289.5,59.2031 L289.5,58.1094 Q289.5,56.8594 290.0938,55.7656 Q290.7031,54.6719 291.75,54.0938 Q292.8125,53.5 294,53.5 Q294.7188,53.5 295.3438,53.75 Q295.9688,54 296.5,54.5 Z " fill="#000000"/><text fill="#000000" font-family="sans-serif" font-size="14" lengthAdjust="spacing" textLength="119" x="308.5" y="63.7285">SQLiteOpenHelper</text><line style="stroke:#181818;stroke-width:0.5;" x1="280.5" x2="429.5" y1="74" y2="74"/><line style="stroke:#181818;stroke-width:0.5;" x1="280.5" x2="429.5" y1="82" y2="82"/></g><!--MD5=[20c857d4ae3dcc8db05d82ab0b43ecdc]
reverse link android.database.sqlite.SQLiteOpenHelper to com.flag.cinema.SQLiteHelper--><g id="link_android.database.sqlite.SQLiteOpenHelper_com.flag.cinema.SQLiteHelper"><path codeLine="38" d="M355,110.26 C355,125.82 355,144.78 355,165.8 " fill="none" id="android.database.sqlite.SQLiteOpenHelper-backto-com.flag.cinema.SQLiteHelper" style="stroke:#181818;stroke-width:1.0;"/><polygon fill="none" points="348,110.06,355,90.06,362,110.06,348,110.06" style="stroke:#181818;stroke-width:1.0;"/></g><!--MD5=[c8f288044ced3f209a8f9163c68b287d]
@startuml
class com.flag.cinema.SQLiteHelper {
~ {static} String DATABASE_NAME
+ {static} String TABLE_NAME
+ {static} String Table_Column_ID
+ {static} String Table_Column_1_Name
+ {static} String Table_Column_2_Email
+ {static} String Table_Column_3_Mobile
+ {static} String Table_Column_4_Password
+ {static} String SEATS_TABLE_NAME
+ {static} String Seats_Table_Column_ID
+ {static} String Seats_Table_Title_Name
+ {static} String Seats_Table_Screen_Name
+ {static} String Seats_Table_Show_Name
+ {static} String Seats_Table_Show_Date
+ {static} String Seats_Table_Seat_Index
+ {static} String Seats_Table_Seat_Name
+ {static} String Seats_Booked_user
+ {static} String Seats_Movie_ID
+ {static} String MOVIE_TABLE_NAME
+ {static} String Movie_ID
+ {static} String Movie_NAME
+ {static} String Movie_img_url
+ {static} String Movie_Type
+ {static} String Movie_trailer
+ {static} String Movie_date_time
+ {static} String Movie_releaseDate
+ {static} String Movie_Length
+ {static} String Movie_category
+ {static} String Movie_Rating
+ {static} String Movie_Description
+ {static} String Movie_Price
+ void onCreate(SQLiteDatabase)
+ void onUpgrade(SQLiteDatabase,int,int)
+ void addRecord(int,String,int,String,String,String,String,String,String,String,String,int,SQLiteDatabase)
}


android.database.sqlite.SQLiteOpenHelper <|- - com.flag.cinema.SQLiteHelper
@enduml

PlantUML version 1.2022.12(Sun Oct 23 21:12:26 MSK 2022)
(GPL source distribution)
Java Runtime: OpenJDK Runtime Environment
JVM: OpenJDK 64-Bit Server VM
Default Encoding: Cp1251
Language: ru
Country: RU
--></g></svg>